<svg xmlns="http://www.w3.org/2000/svg" width="120.828" height="40" viewBox="0 0 120.828 40">
    <g data-name="Group 490">
        <path data-name="Path 1" d="M17.89 9.077a2.06 2.06 0 0 1 2.072 2.147 2.237 2.237 0 0 1-2.222 2.147 2.06 2.06 0 0 1-2.07-2.147 2.237 2.237 0 0 1 2.22-2.147"/>
        <path data-name="Path 2" d="M30.998 12.279a2.06 2.06 0 0 1 2.072 2.147 2.263 2.263 0 0 1-2.222 2.147 2.06 2.06 0 0 1-2.07-2.147 2.263 2.263 0 0 1 2.22-2.147"/>
        <path data-name="Path 3" d="M19.134 1.695a1.793 1.793 0 0 1 1.808 1.846 1.94 1.94 0 0 1-1.921 1.846 1.793 1.793 0 0 1-1.806-1.846 1.94 1.94 0 0 1 1.919-1.846"/>
        <path data-name="Path 4" d="M11.6 12.279a2.06 2.06 0 0 1 2.072 2.147 2.237 2.237 0 0 1-2.222 2.147 2.06 2.06 0 0 1-2.07-2.147 2.263 2.263 0 0 1 2.22-2.147"/>
        <path data-name="Path 5" d="M37.062 5.951a2.562 2.562 0 0 1 2.6 2.712 2.816 2.816 0 0 1-2.787 2.712 2.562 2.562 0 0 1-2.6-2.712 2.816 2.816 0 0 1 2.787-2.712"/>
        <path data-name="Path 6" d="M24.971 5.951a2.562 2.562 0 0 1 2.6 2.712 2.815 2.815 0 0 1-2.787 2.712 2.562 2.562 0 0 1-2.6-2.712 2.79 2.79 0 0 1 2.787-2.712"/>
        <path data-name="Path 7" d="M5.31 9.642a2.06 2.06 0 0 1 2.072 2.147 2.237 2.237 0 0 1-2.222 2.147 2.06 2.06 0 0 1-2.07-2.147 2.236 2.236 0 0 1 2.22-2.147"/>
        <path data-name="Path 8" d="M30.997 0a2.562 2.562 0 0 1 2.6 2.712 2.816 2.816 0 0 1-2.787 2.712 2.562 2.562 0 0 1-2.6-2.712A2.842 2.842 0 0 1 30.997 0"/>
        <path data-name="Path 9" d="M7.119 16.572v23.089H3.126V19.435A23.951 23.951 0 0 1 0 18.985v-2.413zm9.454 4.934a24.5 24.5 0 0 1-.3 3.54l.038.038a6.543 6.543 0 0 1 6.29-3.917c3.352 0 5.424 1.808 5.424 5.8v9.793a18.642 18.642 0 0 1 3.013.49v2.411h-6.895V27.985c0-2.222-.527-3.578-2.674-3.578-2.637 0-4.708 2.863-4.708 6.478v8.738h-3.917V24.557c-.716-.151-2.561-.3-3.164-.377v-2.41a45.7 45.7 0 0 1 6.893-.264m28.437.151v5.085H42.6a14.256 14.256 0 0 1-.452-2.637 10.227 10.227 0 0 0-1.846-.188c-2.109 0-3.314.829-3.314 2.373a1.67 1.67 0 0 0 .49 1.281c1.582 1.582 5.235 1.356 7.345 3.465a3.653 3.653 0 0 1 1.13 2.863c0 3.653-3.277 6.064-7.947 6.064a18.519 18.519 0 0 1-4.482-.527v-5.274h2.446a21.88 21.88 0 0 1 .414 2.674 12.837 12.837 0 0 0 2 .188c2 0 3.691-.829 3.691-2.524a1.6 1.6 0 0 0-.49-1.243c-1.507-1.507-5.2-1.356-7.307-3.427a3.891 3.891 0 0 1-1.168-3.089c0-3.5 2.976-5.612 7.5-5.612a20.094 20.094 0 0 1 4.407.527m26.554-.49c3.315 0 5.311 1.808 5.311 5.8v9.793a18.642 18.642 0 0 1 3.013.49v2.411h-6.93V27.985c0-2.034-.49-3.578-2.6-3.578-2.561 0-4.633 2.976-4.633 6.478v8.738h-3.924V27.947c0-2.034-.49-3.578-2.6-3.578-2.561 0-4.633 2.976-4.633 6.478v8.738h-3.916V24.557c-.716-.151-2.561-.3-3.164-.377v-2.41a46.4 46.4 0 0 1 6.93-.264 24.5 24.5 0 0 1-.3 3.54l.038.038a6.543 6.543 0 0 1 6.29-3.917 4.618 4.618 0 0 1 4.9 3.842 6.729 6.729 0 0 1 6.215-3.842m21.394 6.855h-7.689c.339-2.448 1.846-4.03 4.03-4.03 2.3 0 3.729 1.582 3.653 4.03m-3.5-6.93c-5.273 0-8.286 4.068-8.286 9.567 0 6.365 3.089 9.3 8.738 9.3a17 17 0 0 0 6.29-1.168l-.377-3.089a12.732 12.732 0 0 1-5.273 1.168c-3.616 0-5.461-1.883-5.348-6.1h11.561a17.146 17.146 0 0 0 .113-1.808c0-4.331-2.222-7.872-7.42-7.872m18.456-7.305a44.013 44.013 0 0 1 7.081-.264v23.051c1.017.151 1.959.264 3.013.377v2.411a42.739 42.739 0 0 1-6.742.264 19.6 19.6 0 0 1 .264-3.39h-.075A6.192 6.192 0 0 1 105.575 40c-4.821 0-6.667-3.8-6.667-8.55 0-5.2 2.712-10.245 9.454-10.245a23.072 23.072 0 0 1 2.712.151v-4.784c-.716-.151-2.561-.3-3.164-.377zm3.164 10.81a12.88 12.88 0 0 0-2.863-.339 4.908 4.908 0 0 0-3.616 1.394c-.942.942-1.62 2.486-1.62 5.386 0 3.54 1.092 5.687 3.616 5.687 2.863 0 4.482-3.427 4.482-6.516z"/>
        <path data-name="Path 10" d="M118.907 15.443c.3 0 .49-.151.49-.377s-.188-.339-.49-.339h-.6v.757h.6zm-.9-1.017h.942a.742.742 0 0 1 .6.226.515.515 0 0 1 .151.414.609.609 0 0 1-.527.6l.64.829h-.377l-.6-.791h-.527v.791h-.3zm2.636 1.092a1.827 1.827 0 1 0-3.653 0 1.827 1.827 0 1 0 3.653 0m-3.842 0a2.05 2.05 0 0 1 2.034-2.034 1.985 1.985 0 0 1 2 2 2.05 2.05 0 0 1-2.037 2.03 1.985 1.985 0 0 1-2-2"/>
    </g>
</svg>
