<svg xmlns="http://www.w3.org/2000/svg" width="240" height="40.666" viewBox="0 0 240 40.666">
    <g data-name="ATS logo">
        <g data-name="Group 2162">
            <path data-name="Path 2559" d="M896.325 58.918c0 6.764-3.6 11.018-14.46 23.06H897.2l-.39 2.613h-18.255V82.08C890.581 68.6 893.4 65.067 893.4 59.072c0-4.048-2.434-6.611-6.134-6.611-3.116 0-5.258 1.384-7.253 3.895l-1.947-1.537c2.581-3.28 5.452-4.868 9.347-4.868 5.55 0 8.91 3.843 8.91 8.968z" transform="translate(-728.082 -47.304)" style="fill:#1877f9"/>
            <path data-name="Path 2560" d="M1041.481 67.578c0 11.53-3.553 17.577-10.176 17.577s-10.175-6.1-10.175-17.628 3.505-17.577 10.175-17.577 10.176 6.05 10.176 17.628zm-17.428-.051c0 10.505 2.581 15.168 7.255 15.168s7.205-4.612 7.205-15.117-2.532-15.168-7.205-15.168-7.255 4.612-7.255 15.117z" transform="translate(-846.705 -47.304)" style="fill:#1877f9"/>
            <path data-name="Path 2561" d="M1179.9 58.918c0 6.764-3.6 11.018-14.459 23.06h15.336l-.389 2.613h-18.257V82.08c12.025-13.477 14.849-17.013 14.849-23.009 0-4.048-2.434-6.611-6.134-6.611-3.116 0-5.258 1.384-7.253 3.895l-1.947-1.537c2.581-3.28 5.452-4.868 9.347-4.868 5.55 0 8.91 3.843 8.91 8.968z" transform="translate(-963.214 -47.304)" style="fill:#1877f9"/>
            <path data-name="Path 2562" d="M1308.866 58.457c0 4.612-2.776 7.328-6.379 7.994 4.042.2 7.3 3.126 7.3 8.507 0 5.944-4.041 10.2-10.321 10.2a11.555 11.555 0 0 1-9.3-4.407l1.8-1.691a9.176 9.176 0 0 0 7.4 3.587c4.771 0 7.5-3.126 7.5-7.635 0-5.176-2.921-7.174-7.3-7.174h-2.142l.39-2.408h1.558c3.408 0 6.67-2.152 6.67-6.816 0-3.792-2.484-6.149-6.231-6.149a9.7 9.7 0 0 0-7.205 3.177l-1.508-1.845a11.793 11.793 0 0 1 8.86-3.843c5.647 0 8.91 3.741 8.91 8.507z" transform="translate(-1069.789 -47.304)" style="fill:#1877f9"/>
        </g>
        <g data-name="Group 2163">
            <path data-name="Path 2563" d="M20.281 34.46A20.333 20.333 0 0 0 0 54.792v2.217A24.076 24.076 0 0 0 20.281 34.46" transform="translate(0 -34.46)" style="fill:#00adee"/>
            <path data-name="Path 2564" d="M0 139.585v13.035a20.333 20.333 0 0 0 20.332-20.332v-4.368A30.345 30.345 0 0 1 0 139.585" transform="translate(0 -111.956)" style="fill:#00adee"/>
            <path data-name="Path 2565" d="M174.881 57.018V54.8A20.33 20.33 0 0 0 154.6 34.47a24.076 24.076 0 0 0 20.281 22.549" transform="translate(-128.192 -34.468)" style="fill:#1877f9"/>
            <path data-name="Path 2566" d="M154.3 127.93v4.37a20.335 20.335 0 0 0 20.334 20.334v-13.039A30.348 30.348 0 0 1 154.3 127.93" transform="translate(-127.943 -111.964)" style="fill:#1877f9"/>
        </g>
        <g data-name="Group 2164">
            <path data-name="Path 2567" d="m138.683 6.532-3.524 4.014a11.326 11.326 0 0 0-7.55-2.952c-3.042 0-5.251 1.375-5.251 4.024 0 2.455 1.324 3.532 6.969 5.3 5.938 1.865 10.059 4.32 10.059 10.7s-4.761 10.4-12.856 10.4c-5.4 0-9.511-1.828-12.309-4.576l3.543-3.932a12.427 12.427 0 0 0 8.618 3.127c3.534 0 6.233-1.39 6.233-4.675 0-2.849-1.423-4.123-6.723-5.743-7.116-2.21-10.208-5.054-10.208-10.21 0-5.642 4.86-9.374 11.535-9.374 4.955 0 8.52 1.2 11.465 3.895"/>
            <path data-name="Path 2568" d="M80.71 29.435H67.947l-2.49 7.854h-6.724L70.427 3.375h8l11.646 33.914h-6.87l-2.491-7.854zm-1.536-4.908-4.87-15.433-4.844 15.433z"/>
            <path data-name="Path 2569" d="M87.129 3.375v5.153h9.89v28.759h6.53V8.528h9.89V3.375z"/>
        </g>
    </g>
</svg>
