<svg xmlns="http://www.w3.org/2000/svg" width="12.897" height="12.87" viewBox="0 0 12.897 12.87">
    <path data-name="Path 542" d="M10.63 12.87H2.267a.409.409 0 0 0-.07-.022A2.491 2.491 0 0 1 .06 10.925c-.022-.1-.04-.2-.06-.293V3.216a.434.434 0 0 0 .023-.069 2.455 2.455 0 0 1 1.311-1.871A2.507 2.507 0 0 1 2.582.987h.39v-.5a.5.5 0 0 1 1 .009c.005.161 0 .322 0 .482h4.942V.534a.503.503 0 1 1 1.007 0v.448h.427a2.5 2.5 0 0 1 2.457 1.84c.035.128.058.259.087.389v7.417a.4.4 0 0 0-.022.07 2.481 2.481 0 0 1-1.9 2.1c-.112.029-.226.048-.34.072zm1.26-7.9H1.007v5.348a1.484 1.484 0 0 0 1.544 1.545h7.795a1.484 1.484 0 0 0 1.543-1.546v-5.2zM3.98 2.002v.952a.503.503 0 1 1-1.006 0V2.001a1.6 1.6 0 0 0-1.946 1.941h10.85a1.6 1.6 0 0 0-1.95-1.937v.976a.5.5 0 0 1-.987.108.874.874 0 0 1-.018-.2v-.9z"/>
    <path data-name="Path 543" d="M3.486 9.351h.49a.5.5 0 0 1 .008 1q-.509.011-1.018 0a.5.5 0 0 1 0-1c.176-.003.348 0 .52 0z"/>
    <path data-name="Path 544" d="M9.43 9.352h.49a.5.5 0 0 1 0 1q-.5.009-1.006 0a.5.5 0 0 1 .01-1c.171-.003.336 0 .506 0z"/>
    <path data-name="Path 545" d="M9.416 7.391h-.49a.5.5 0 1 1 0-1q.49-.005.981 0a.5.5 0 1 1 .008 1c-.163.003-.331 0-.499 0z"/>
    <path data-name="Path 546" d="M3.471 7.391h-.49a.5.5 0 1 1 0-1q.49-.005.981 0a.5.5 0 1 1 0 1c-.165.003-.328 0-.491 0z"/>
    <path data-name="Path 547" d="M6.449 7.391h-.49a.5.5 0 1 1 0-1h.981a.5.5 0 1 1 0 1c-.164.003-.327 0-.491 0z"/>
    <path data-name="Path 548" d="M6.44 10.356h-.478a.5.5 0 1 1 .005-1h.956a.5.5 0 1 1 .007 1c-.163.003-.327 0-.49 0z"/>
</svg>
