<svg data-name="Icon discover" xmlns="http://www.w3.org/2000/svg" width="140" height="140" viewBox="0 0 140 140">
    <g data-name="Group 627" style="opacity:.4">
        <path data-name="Path 472" d="M41.907 80.524c-4.3-2.118-7.2-5.456-10-8.939-2.878-3.584-5.653-7.175-7.123-11.5S21.662 51.2 21.84 46.633c.175-4.42 1.983-8.876 4.1-13.164s5.441-7.35 8.849-10.164c3.514-2.9 7.542-4.566 11.873-6.037 4.313-1.466 8.6-3.724 13.211-3.722a30.408 30.408 0 0 1 13.286 3.537c4.289 2.114 8.324 4.686 11.241 8.178a38.556 38.556 0 0 1 6.5 12.348 37.943 37.943 0 0 1 1.76 13.728 33.3 33.3 0 0 1-3.078 13.481 29.684 29.684 0 0 1-8.6 10.78c-3.671 2.742-8.26 4.2-12.569 5.662s-8.822 1.7-13.378 1.69c-4.447-.006-8.824-.305-13.129-2.425z" transform="translate(20.615 12.793)" style="fill:#b93b4e"/>
    </g>
    <path data-name="Path 473" d="M71.686 7.654a46.726 46.726 0 0 0-34.059 78.754L7.066 116.969l2.061 2.063L39.69 88.471a46.747 46.747 0 1 0 32-80.817zm0 90.605a43.844 43.844 0 1 1 43.843-43.845 43.894 43.894 0 0 1-43.843 43.845z" transform="translate(6.673 7.229)" style="fill:#010101"/>
    <g data-name="Group 628" transform="translate(69.269 37.678)">
        <ellipse data-name="Ellipse 140" cx="8.599" cy="6.449" rx="8.599" ry="6.449" transform="translate(1.483 1.485)" style="fill:#b93b4e"/>
        <path data-name="Path 474" d="M45.706 35.244c-5.561 0-10.082-3.558-10.082-7.933s4.521-7.933 10.082-7.933S55.79 22.935 55.79 27.31s-4.523 7.934-10.084 7.934zm0-12.9c-3.856 0-7.113 2.273-7.113 4.964s3.257 4.964 7.113 4.964S52.821 30 52.821 27.31s-3.257-4.964-7.115-4.964z" transform="translate(-35.624 -19.377)" style="fill:#b93b4e"/>
    </g>
    <path data-name="Path 475" d="M45.33 42.382a1.509 1.509 0 0 1-.651-.15 17.649 17.649 0 0 1-8.845-18.789 1.485 1.485 0 0 1 2.928.5 14.587 14.587 0 0 0 7.224 15.62 1.484 1.484 0 0 1-.655 2.817z" transform="translate(33.552 20.978)" style="fill:#b93b4e"/>
    <g data-name="Group 629" transform="translate(80.372 62.26)">
        <ellipse data-name="Ellipse 141" cx="8.551" cy="6.413" rx="8.551" ry="6.413" transform="rotate(-48.732 14.19 6.427)" style="fill:#b93b4e"/>
        <path data-name="Path 476" d="M48.945 51.115a6.753 6.753 0 0 1-4.532-1.622c-3.272-2.874-2.967-8.594.684-12.754s9.277-5.205 12.555-2.331 2.965 8.592-.684 12.754a11.007 11.007 0 0 1-8.023 3.953zm-2.575-3.852c2.007 1.764 5.839.819 8.365-2.061s2.965-6.8.955-8.561-5.837-.819-8.365 2.061-2.963 6.8-.955 8.561z" transform="translate(-40.571 -31.294)" style="fill:#b93b4e"/>
    </g>
    <path data-name="Path 477" d="M59.741 39.8a1.484 1.484 0 0 1-1.283-.735c-4.1-7.006-16.788-4.914-16.915-4.892a1.485 1.485 0 1 1-.5-2.926c.6-.105 14.852-2.448 19.981 6.317a1.486 1.486 0 0 1-1.283 2.236z" transform="translate(37.594 29.168)" style="fill:#b93b4e"/>
    <g data-name="Group 630" transform="translate(54.589 57.97)">
        <ellipse data-name="Ellipse 142" cx="6.389" cy="8.519" rx="6.389" ry="8.519" transform="rotate(-24.971 12.182 2.697)" style="fill:#b93b4e"/>
        <path data-name="Path 478" d="M38.448 49.522c-3.327 0-6.835-2.427-8.655-6.333-2.329-5-1.023-10.558 2.913-12.394 3.938-1.832 9.034.745 11.361 5.744S45.09 47.1 41.154 48.932a6.372 6.372 0 0 1-2.707.589zM33.96 33.486c-2.409 1.124-3.086 4.993-1.476 8.449s5 5.421 7.416 4.307 3.086-4.993 1.476-8.449-4.999-5.427-7.416-4.307z" transform="translate(-27.542 -29.444)" style="fill:#b93b4e"/>
    </g>
    <path data-name="Path 479" d="M34.505 48.718a1.484 1.484 0 0 1-.1-2.965c10.3-.716 11.76-12.855 11.818-13.372a1.484 1.484 0 0 1 2.952.319C48.61 37.929 44.842 48 34.61 48.714c-.035.002-.07.004-.105.004z" transform="translate(31.188 29.334)" style="fill:#b93b4e"/>
    <circle data-name="Ellipse 143" cx="2.346" cy="2.346" r="2.346" transform="translate(57.453 48.028)" style="fill:#fff"/>
    <circle data-name="Ellipse 144" cx="2.346" cy="2.346" r="2.346" transform="translate(94.987 52.72)" style="fill:#fff"/>
    <circle data-name="Ellipse 145" cx="2.346" cy="2.346" r="2.346" transform="translate(73.875 80.87)" style="fill:#fff"/>
</svg>
