<svg xmlns="http://www.w3.org/2000/svg" width="104" height="104" viewBox="0 0 104 104">
    <g transform="translate(-35 -39.474)">
        <circle data-name="Ellipse 46" cx="52" cy="52" r="52" transform="translate(35 39.474)" style="fill:#fcc454"/>
        <g data-name="Group 321">
            <path data-name="Path 259" d="M61.268 52.348A13.638 13.638 0 1 1 74.905 38.71a13.654 13.654 0 0 1-13.637 13.638zm0-25.071A11.433 11.433 0 1 0 72.7 38.71a11.446 11.446 0 0 0-11.432-11.433z" transform="translate(25.733 26.334)" style="fill:#6f0013"/>
            <path data-name="Path 260" d="M94.952 93.36H32.6A4.125 4.125 0 0 1 28.775 89v-8.137H26a2.956 2.956 0 0 1-2.843-3.051v-2.336A2.956 2.956 0 0 1 26 72.425h19.2v-6.457a18.283 18.283 0 0 1 7.068-14.482 4.878 4.878 0 0 1 5.151-.493 14.34 14.34 0 0 0 12.7 0 4.868 4.868 0 0 1 5.151.491 18.287 18.287 0 0 1 7.068 14.483v6.457h19.2a2.956 2.956 0 0 1 2.843 3.051v2.337a2.956 2.956 0 0 1-2.843 3.051h-2.763V89a4.125 4.125 0 0 1-3.823 4.36zM26 74.63c-.345 0-.638.387-.638.846v2.337c0 .459.293.846.638.846h4.98V89c0 1.169.741 2.158 1.618 2.158h62.354c.878 0 1.618-.989 1.618-2.158V78.658h4.977c.345 0 .638-.387.638-.846v-2.336c0-.459-.293-.846-.638-.846H80.141v-8.662a16.092 16.092 0 0 0-6.222-12.747 2.658 2.658 0 0 0-2.808-.254 16.562 16.562 0 0 1-14.672 0 2.66 2.66 0 0 0-2.808.255 16.089 16.089 0 0 0-6.222 12.746v8.662z" transform="translate(23.225 28.937)" style="fill:#6f0013"/>
            <path data-name="Path 261" d="M30.458 73.156h-2.2v-8.571a8.352 8.352 0 0 1 1.64-4.989l3.93-5.332 1.772 1.309-3.929 5.333a6.247 6.247 0 0 0-1.211 3.68z" transform="translate(23.747 29.326)" style="fill:#6f0013"/>
            <path data-name="Path 262" d="M36.14 57.1a4.111 4.111 0 1 1 4.111-4.11 4.115 4.115 0 0 1-4.111 4.11zm0-6.016a1.906 1.906 0 1 0 1.906 1.906 1.909 1.909 0 0 0-1.906-1.905z" transform="translate(24.134 28.774)" style="fill:#6f0013"/>
        </g>
        <text transform="translate(85.236 102.947)" style="fill:#fff;font-size:37px;font-family:Nunito-ExtraBold,Nunito;font-weight:800"><tspan x="-37.5" y="0">FPO</tspan></text>
    </g>
</svg>
