<svg xmlns="http://www.w3.org/2000/svg" width="9.25" height="13.049" viewBox="0 0 9.25 13.049">
    <path d="M4.213 12.82c-.112-.152-.218-.312-.324-.465-.047-.07-.094-.143-.147-.213-.206-.3-.412-.6-.624-.9-.471-.682-.959-1.383-1.425-2.084A11.5 11.5 0 0 1 .3 6.34a4.806 4.806 0 0 1-.084-3.086A4.58 4.58 0 0 1 3.9.059c.088-.018.182-.029.271-.041.035-.006.077-.006.118-.012L4.3 0l.683.006.217.035c.165.023.336.053.506.088A4.64 4.64 0 0 1 9.211 4a5.524 5.524 0 0 1-.324 2.572 13.083 13.083 0 0 1-1.513 2.9c-.5.742-1.024 1.488-1.531 2.213-.224.324-.453.648-.677.971-.012.02-.029.043-.041.061-.024.041-.053.076-.077.117a.529.529 0 0 1-.418.223.511.511 0 0 1-.417-.237zm.065-11.8a3.634 3.634 0 0 0-3.214 4.271 7.744 7.744 0 0 0 .718 2.02 27.659 27.659 0 0 0 2.231 3.479c.2.289.412.582.618.877.171-.24.335-.482.506-.725.436-.623.889-1.258 1.318-1.9a12.7 12.7 0 0 0 1.473-2.763 4.378 4.378 0 0 0 .294-2.117 3.6 3.6 0 0 0-3.6-3.156 3.333 3.333 0 0 0-.344.017zM4.619 7a2.375 2.375 0 0 1 .012-4.75h.006a2.367 2.367 0 0 1 1.678.707A2.334 2.334 0 0 1 7 4.633 2.371 2.371 0 0 1 4.631 7zM3.66 3.654A1.37 1.37 0 0 0 4.625 6l.006.129V6a1.375 1.375 0 1 0-.971-2.346z"/>
</svg>
