<svg xmlns="http://www.w3.org/2000/svg" width="104" height="104" viewBox="0 0 104 104">
    <g transform="translate(-35 -42.668)">
        <circle data-name="Ellipse 45" cx="52" cy="52" r="52" transform="translate(35 42.668)" style="fill:#fcc454"/>
        <g data-name="Group 389">
            <path data-name="Path 289" d="M580.5 160.4a6.325 6.325 0 0 1-4.516-1.856 6.447 6.447 0 0 1 0-9.082l17.135-17.195-.708-1.246a29.148 29.148 0 1 1 10.995 11.035l-1.254-.713-17.139 17.2a6.324 6.324 0 0 1-4.513 1.857zm-2.788-9.217a3.967 3.967 0 1 0 5.61 5.608l16.794-16.854-1.5-1.324a29.862 29.862 0 0 1-2.766-2.774l-1.326-1.522zm40.045-61.357a26.788 26.788 0 1 0 26.7 26.788 26.773 26.773 0 0 0-26.695-26.786z" transform="translate(-523.509 -33.67)" style="fill:#6f0013"/>
            <g data-name="Group 389" transform="translate(75.537 64.231)">
                <path data-name="Path 290" d="M646.3 147.389a18.716 18.716 0 1 1 18.716-18.716 18.737 18.737 0 0 1-18.716 18.716zm0-35.109a16.393 16.393 0 1 0 16.393 16.393A16.412 16.412 0 0 0 646.3 112.28z" transform="translate(-627.583 -109.957)" style="fill:#6f0013"/>
                <path data-name="Path 291" d="M649.517 141.859a3.67 3.67 0 0 0-1.189.2 11.211 11.211 0 0 1-1.27-.916 4.823 4.823 0 0 1-1.529-1.983 2.793 2.793 0 0 1-.129-.57 3.658 3.658 0 0 0-.4-3.664 11.621 11.621 0 0 1 1-1.4 4.845 4.845 0 0 1 1.978-1.526 3.7 3.7 0 1 0-1.657-1.514 4.572 4.572 0 0 1-1.032 1.451 11.366 11.366 0 0 1-2.183 1.6l-.038.022a3.689 3.689 0 1 0 .126 7.034h.014a3.97 3.97 0 0 1 2.261 1.262 9.673 9.673 0 0 1 1.133 1.435 3.684 3.684 0 1 0 2.914-1.436z" transform="translate(-633.325 -117.966)" style="fill:#6f0013"/>
                <circle data-name="Ellipse 100" cx="1.154" cy="1.154" r="1.154" transform="translate(29.677 17.98)" style="fill:#6f0013"/>
                <circle data-name="Ellipse 101" cx="1.154" cy="1.154" r="1.154" transform="translate(23.414 14.214)" style="fill:#6f0013"/>
                <circle data-name="Ellipse 102" cx="1.154" cy="1.154" r="1.154" transform="translate(23.414 7.433)" style="fill:#6f0013"/>
                <circle data-name="Ellipse 103" cx="1.154" cy="1.154" r="1.154" transform="translate(23.414 20.995)" style="fill:#6f0013"/>
                <circle data-name="Ellipse 104" cx="1.154" cy="1.154" r="1.154" transform="translate(23.414 27.775)" style="fill:#6f0013"/>
            </g>
        </g>
        <text transform="translate(88 106.668)" style="fill:#fff;font-size:38px;font-family:Nunito-ExtraBold,Nunito;font-weight:800"><tspan x="-38.513" y="0">FPO</tspan></text>
    </g>
</svg>
