<svg xmlns="http://www.w3.org/2000/svg" width="72" height="72" viewBox="0 0 72 72">
    <g data-name="Warning sign icon">
        <path data-name="Rectangle 330" style="fill:none" d="M0 0h72v72H0z"/>
        <g data-name="Warning sign icon">
            <path data-name="Path 988" d="M35.998 63.985a1.236 1.236 0 0 1-.883-.367L8.363 36.882a1.258 1.258 0 0 1 0-1.767L35.117 8.361a1.258 1.258 0 0 1 1.767 0l26.753 26.754a1.258 1.258 0 0 1 0 1.767L36.884 63.635a1.236 1.236 0 0 1-.883.367zM11.013 35.996l24.985 24.989 24.989-24.989-24.989-24.985z"/>
            <path data-name="Path 989" d="M34.867 39.098a2.2 2.2 0 0 1-.583-1.267l-1.65-9.835a3.94 3.94 0 0 1-.033-.5 2.753 2.753 0 0 1 .967-2.234 3.587 3.587 0 0 1 2.417-.8 3.7 3.7 0 0 1 2.434.817 2.826 2.826 0 0 1 .95 2.25 2.061 2.061 0 0 1-.033.5l-1.667 9.8a2.076 2.076 0 0 1-.55 1.267 1.611 1.611 0 0 1-2.234 0zM33.8 46.216a3.184 3.184 0 0 1 0-4.367 3.14 3.14 0 0 1 4.367 0A3.067 3.067 0 0 1 36 47.1a3.017 3.017 0 0 1-2.2-.883z"/>
        </g>
    </g>
</svg>
