<svg data-name="Icon explore" xmlns="http://www.w3.org/2000/svg" width="140" height="140" viewBox="0 0 140 140">
    <g data-name="Group 625">
        <g data-name="Layer 1">
            <g data-name="Group 624">
                <g data-name="Group 622">
                    <g data-name="Group 620">
                        <path data-name="Path 465" d="M75.672 85.28a6.067 6.067 0 0 1-1.958-.324c-6.39-2.168-15.353-5.68-21.76-10.109C41.993 67.964 42 58.462 42 37.644V12.716C42 10.114 44.422 8 47.395 8a6.065 6.065 0 0 1 1.938.318c8.534 2.859 20.452 9.94 28.759 27.423 9.774 20.568 5.9 37.819 2.725 46.27a5.394 5.394 0 0 1-5.145 3.269z" transform="translate(39.04 11.4)" style="fill:#f47e54"/>
                        <path data-name="Path 466" d="M75.672 85.28a6.067 6.067 0 0 1-1.958-.324c-6.39-2.168-15.353-5.68-21.76-10.109C41.993 67.964 42 58.462 42 37.644V12.716C42 10.114 44.422 8 47.395 8a6.065 6.065 0 0 1 1.938.318c8.534 2.859 20.452 9.94 28.759 27.423 9.774 20.568 5.9 37.819 2.725 46.27a5.394 5.394 0 0 1-5.145 3.269z" transform="translate(39.04 11.4)" style="opacity:.25;isolation:isolate;fill:#f47e54"/>
                    </g>
                    <g data-name="Group 621" style="opacity:.4">
                        <path data-name="Path 467" d="M15.648 85.28a5.4 5.4 0 0 1-5.148-3.268c-3.178-8.451-7.049-25.7 2.725-46.272 8.311-17.482 20.229-24.562 28.763-27.422A6.066 6.066 0 0 1 43.925 8c2.973 0 5.395 2.114 5.395 4.716v24.928c0 20.818.007 30.32-9.954 37.2-6.407 4.432-15.366 7.945-21.76 10.112a6.067 6.067 0 0 1-1.958.324z" transform="translate(9.64 11.4)" style="fill:#f47e54"/>
                        <path data-name="Path 468" d="M15.648 85.28a5.4 5.4 0 0 1-5.148-3.268c-3.178-8.451-7.049-25.7 2.725-46.272 8.311-17.482 20.229-24.562 28.763-27.422A6.066 6.066 0 0 1 43.925 8c2.973 0 5.395 2.114 5.395 4.716v24.928c0 20.818.007 30.32-9.954 37.2-6.407 4.432-15.366 7.945-21.76 10.112a6.067 6.067 0 0 1-1.958.324z" transform="translate(9.64 11.4)" style="opacity:.25;isolation:isolate;fill:#f47e54"/>
                    </g>
                </g>
                <g data-name="Group 623">
                    <path data-name="Path 469" d="M93.9 58.173c-.243-.063-15.559-4.094-26.674-15.311a15.075 15.075 0 0 0 4.134.585c7.165 0 13.421-4.622 13.52-4.7a1.379 1.379 0 0 0-1.662-2.2c-.543.4-13.2 9.7-21.734-.874a36.372 36.372 0 0 1-5.6-19.694V5.63a1.38 1.38 0 0 0-2.76 0v10.35a36.27 36.27 0 0 1-5.645 19.734c-8.53 10.51-21.145 1.238-21.686.834a1.379 1.379 0 0 0-1.662 2.2c.1.075 6.348 4.7 13.509 4.7a15.133 15.133 0 0 0 4.087-.572c-11.141 11.2-26.47 15.235-26.713 15.3a1.38 1.38 0 0 0 .337 2.718 1.433 1.433 0 0 0 .339-.042c.3-.075 22.982-6.02 34.134-23.653.07-.088.142-.158.212-.248a1.381 1.381 0 0 0 .239-.5 38.528 38.528 0 0 0 4.225-9.928 38.538 38.538 0 0 0 4.219 9.919 1.365 1.365 0 0 0 .239.5c.068.088.14.156.208.245 11.125 17.639 33.753 23.586 34.055 23.661a1.436 1.436 0 0 0 .34.042 1.38 1.38 0 0 0 .335-2.718z" transform="translate(15.497 8.25)" style="fill:#010101"/>
                    <path data-name="Path 470" d="M38.964 48.387a6.492 6.492 0 1 0 6.49 6.492 6.5 6.5 0 0 0-6.49-6.492zm0 10.223a3.732 3.732 0 1 1 3.73-3.732 3.737 3.737 0 0 1-3.73 3.732z" transform="translate(31.036 45.325)" style="fill:#010101"/>
                    <path data-name="Path 471" d="M74 38.742a5.892 5.892 0 0 0-4.287-1.492c-5.333.063-13.513 4.491-21.821 11.55-5.281-4.041-19.37-13.91-24.731-8.665-2.983 2.955-1.461 9.408 4.272 18.165 1.43 2.19 3.093 4.451 4.928 6.723-8.45 10.567-13.761 20.91-9.653 25.015a5.66 5.66 0 0 0 4.179 1.492h.109c5.189-.059 13.066-4.247 21.138-10.968C55.392 86.207 63.78 91.109 69.3 91.109a5.638 5.638 0 0 0 4.111-1.466c4.5-4.433-1.9-15.894-9.522-25.311C72.6 53.567 78.186 42.921 74 38.742zM29.742 56.789C24.086 48.156 23.707 43.477 25.1 42.1c2.083-2.033 9.8.305 20.674 8.558a103.17 103.17 0 0 0-5.514 5.351 139.455 139.455 0 0 0-6.1 6.823c-1.636-2.045-3.134-4.076-4.418-6.043zm41.729 30.886c-2.074 2.042-10.151-.456-21.195-8.952a102.208 102.208 0 0 0 6.177-5.952 142.86 142.86 0 0 0 5.634-6.269c8.84 11.05 11.467 19.123 9.384 21.173zM54.459 70.867a97.707 97.707 0 0 1-6.385 6.112 118.92 118.92 0 0 1-8.418-7.531 1.379 1.379 0 1 0-1.934 1.965 120.798 120.798 0 0 0 8.206 7.378c-7.971 6.521-15.092 9.934-18.965 9.978a3.215 3.215 0 0 1-2.306-.683c-2.773-2.773 3.634-15.559 17.594-30.174a97.61 97.61 0 0 1 5.713-5.513 117.754 117.754 0 0 1 8.948 7.921 1.38 1.38 0 1 0 1.938-1.965c-2.813-2.769-5.767-5.356-8.769-7.785 8.252-6.9 15.68-10.516 19.666-10.562h.081a3.071 3.071 0 0 1 2.225.683c2.775 2.775-3.634 15.561-17.594 30.176z" transform="translate(21.645 35.97)" style="fill:#010101"/>
                </g>
            </g>
        </g>
    </g>
</svg>
