<svg xmlns="http://www.w3.org/2000/svg" width="104" height="104" viewBox="0 0 104 104">
    <path data-name="Path 124" d="M52 0A52 52 0 1 1 0 52 52 52 0 0 1 52 0z" style="fill:#fcc454"/>
    <g data-name="Group 320" style="mix-blend-mode:darken;isolation:isolate">
        <path data-name="Path 254" d="M77.6 86.891a8.986 8.986 0 0 1-2.32-.307l-13.264-3.567a8.6 8.6 0 0 1-5.552-4.717 8.347 8.347 0 0 1-.055-7.075 63.276 63.276 0 0 0 5.478-19.665l.315-3.709-9.535-6.028-9.334 6.028.314 3.574a63.361 63.361 0 0 0 5.494 19.8 8.355 8.355 0 0 1-.055 7.075 8.6 8.6 0 0 1-5.551 4.715l-13.27 3.568a8.915 8.915 0 0 1-2.3.3 8.5 8.5 0 0 1-4.866-1.5 8.714 8.714 0 0 1-3.672-6.353c-1.068-10.865.455-20.266 4.528-27.942a38 38 0 0 1 11.184-12.807 5.63 5.63 0 0 1 3.345-1.138 4.937 4.937 0 0 1 2.293.557 4.819 4.819 0 0 1 2.555 4.591c-.03.759-.046 1.532-.048 2.313v.782l8.316-5.179v-9.024a1.124 1.124 0 0 1 2.13-.017l.006.017v9.026l8.53 5.319v-.78c0-.834-.016-1.656-.048-2.459A4.818 4.818 0 0 1 64.77 37.7a4.948 4.948 0 0 1 2.295-.557 5.625 5.625 0 0 1 3.345 1.138A38 38 0 0 1 81.6 51.1c4.073 7.677 5.6 17.078 4.526 27.942a8.714 8.714 0 0 1-3.67 6.353 8.48 8.48 0 0 1-4.856 1.496zM38.472 39.43a3.26 3.26 0 0 0-1.954.688A35.787 35.787 0 0 0 25.98 52.174c-3.857 7.269-5.294 16.233-4.272 26.639A6.423 6.423 0 0 0 24.4 83.5a6.219 6.219 0 0 0 3.554 1.088 6.673 6.673 0 0 0 1.715-.227L42.938 80.8A6.316 6.316 0 0 0 47 77.332a6.061 6.061 0 0 0 .057-5.133A65.616 65.616 0 0 1 41.266 50.7l-.107-1.143-.065.043-.084-3.074a65.777 65.777 0 0 1 .026-4.334 2.541 2.541 0 0 0-1.327-2.465 2.592 2.592 0 0 0-1.237-.297zm25.8 11.411A65.593 65.593 0 0 1 58.491 72.2a6.051 6.051 0 0 0 .056 5.132 6.31 6.31 0 0 0 4.065 3.468l13.269 3.567a6.671 6.671 0 0 0 1.71.225 6.224 6.224 0 0 0 3.557-1.092 6.428 6.428 0 0 0 2.691-4.689c1.024-10.406-.414-19.37-4.269-26.639a35.79 35.79 0 0 0-10.539-12.053 3.316 3.316 0 0 0-1.96-.684 2.624 2.624 0 0 0-1.231.3 2.542 2.542 0 0 0-1.327 2.465c.057 1.445.065 2.951.022 4.475l-.088 3.072-.069-.044z" transform="translate(-11.84 -11.272)" style="fill:#6f0013"/>
        <g data-name="Group 316">
            <g data-name="Group 315" transform="translate(61.22 32.276)">
                <circle data-name="Ellipse 79" cx="16.721" cy="16.721" transform="translate(1.044 1.045)" style="fill:#fff" r="16.721"/>
                <path data-name="Path 255" d="M88.53 78.52a17.765 17.765 0 1 1 17.77-17.765A17.785 17.785 0 0 1 88.53 78.52zm0-33.441a15.676 15.676 0 1 0 15.676 15.676A15.693 15.693 0 0 0 88.53 45.079z" transform="translate(-70.766 -42.99)" style="fill:#6f0013"/>
            </g>
        </g>
        <g data-name="Group 319">
            <g data-name="Group 317">
                <path data-name="Path 256" d="M87.842 61.709a1.642 1.642 0 1 1 .314-.03 1.6 1.6 0 0 1-.314.03zm.28-.208z" transform="translate(-8.861 -10.028)" style="fill:#6f0013"/>
            </g>
            <g data-name="Group 318">
                <path data-name="Path 257" d="M95.732 58.926c2.12-3.129 2.83-5.837 1.618-7.1-.913-.949-2.7-.884-5.04.185a17.582 17.582 0 0 0-1.6.84c-.233-.514-.474-1-.727-1.452-1.309-2.32-2.776-3.461-4.076-3.2-1.636.314-2.6 2.719-2.744 6.227A17.782 17.782 0 0 0 81.2 54.3c-2.571-.009-4.246.659-4.7 1.911s.377 2.849 2.356 4.5a18.552 18.552 0 0 0 2.014 1.436 19.57 19.57 0 0 0-1.156 1.91c-1.23 2.358-1.392 4.194-.453 5.171a2.446 2.446 0 0 0 1.839.672 8.159 8.159 0 0 0 3.347-.928 18.15 18.15 0 0 0 1.418-.757c.23.508.468.992.717 1.435 1.192 2.114 2.472 3.231 3.7 3.231a1.932 1.932 0 0 0 .372-.036c1.635-.314 2.6-2.72 2.742-6.229a17.759 17.759 0 0 0 2.078.134c2.508 0 4.138-.678 4.588-1.911.615-1.671-1.125-3.89-4.33-5.913zm-2.32 6.465a29.851 29.851 0 0 0-.225-3.263 30.76 30.76 0 0 0 1.838-2.213 17.881 17.881 0 0 1 1.875 1.332c1.51 1.25 2.286 2.467 2.027 3.176-.318.87-2.367 1.353-5.515.968zm-12.625-.778a18.556 18.556 0 0 1 1.125-1.85 30.33 30.33 0 0 0 2.46 1.239 30.213 30.213 0 0 0 1.013 3.09c-.5.3-.986.562-1.458.785-1.844.872-3.264 1.057-3.793.508s-.275-1.992.653-3.772zm.3-9.1a16.744 16.744 0 0 1 2.059.142 29.925 29.925 0 0 0 .232 3.316 30.776 30.776 0 0 0-1.807 2.189 17.875 17.875 0 0 1-1.907-1.36c-1.51-1.249-2.286-2.465-2.027-3.175.252-.685 1.577-1.114 3.454-1.114zm5.189-6.13c.736 0 1.725.978 2.649 2.615.259.461.507.965.745 1.5a29.674 29.674 0 0 0-2.4 1.782 28.98 28.98 0 0 0-2.9-.648 17.083 17.083 0 0 1 .156-1.877c.277-1.934.894-3.22 1.613-3.36a.74.74 0 0 1 .141-.013zm10.2 3.286c.511.532.278 1.945-.609 3.686a18.034 18.034 0 0 1-1.178 1.945c-.77-.434-1.6-.855-2.5-1.255a30.21 30.21 0 0 0-1-3.064 9.677 9.677 0 0 1 4.327-1.618 1.358 1.358 0 0 1 .959.304zm-5.808 10.314c-.535.514-1.077 1-1.621 1.462a32.755 32.755 0 0 1-3.654-1.324 35.171 35.171 0 0 1-.439-1.954c-.117-.606-.211-1.2-.295-1.794.41-.438.836-.874 1.281-1.3a35.954 35.954 0 0 1 1.61-1.455c.636.191 1.278.4 1.927.638a34.66 34.66 0 0 1 1.692.676c.16.636.309 1.288.438 1.955.12.621.216 1.233.3 1.838-.396.42-.807.842-1.239 1.258zm2.132-3.328a35.736 35.736 0 0 0-.229-1.093c.49.237.956.483 1.406.733-.319.42-.656.842-1.018 1.266-.053-.301-.103-.601-.159-.906zm-2.9-3.538c-.413-.151-.819-.269-1.228-.4.507-.393 1-.753 1.478-1.075.219.577.425 1.182.617 1.812a38.681 38.681 0 0 0-.867-.337zm-4.8 1.078c-.214.207-.42.415-.627.624-.063-.681-.1-1.34-.112-1.977a27.49 27.49 0 0 1 1.79.384c-.351.313-.7.634-1.051.969zm-1.337 4.2c.071.369.148.733.229 1.095-.476-.231-.931-.47-1.37-.713.312-.411.639-.825.991-1.24.051.285.097.569.153.863zm2.9 3.538c.416.152.83.295 1.243.429-.5.384-.994.745-1.484 1.073-.222-.583-.431-1.2-.626-1.836.292.113.579.227.872.335zm4.839-1.077c.2-.194.392-.389.585-.583.06.664.093 1.309.107 1.931-.559-.1-1.14-.221-1.751-.373.357-.315.714-.638 1.064-.974zm-2.184 1.93a29.306 29.306 0 0 0 2.872.653 17.282 17.282 0 0 1-.155 1.858c-.277 1.934-.9 3.221-1.614 3.36s-1.806-.854-2.792-2.6c-.256-.453-.5-.951-.736-1.479a29.443 29.443 0 0 0 2.43-1.791z" transform="translate(-9.297 -10.484)" style="fill:#6f0013"/>
                <path data-name="Path 258" d="M90.306 73.426c-1.432 0-2.87-1.21-4.16-3.5a19.634 19.634 0 0 1-.5-.957c-.349.192-.665.356-.961.5-2.653 1.254-4.674 1.289-5.783.142s-.976-3.2.367-5.774c.249-.476.546-.984.891-1.515a18.064 18.064 0 0 1-1.619-1.187c-2.163-1.8-3.055-3.6-2.514-5.078.376-1.03 1.574-2.254 5.139-2.254h.056c.464 0 .956.029 1.467.076.242-3.589 1.373-5.821 3.136-6.163 1.546-.321 3.2.912 4.631 3.454.168.3.335.621.5.975.4-.222.787-.418 1.149-.582 2.555-1.166 4.556-1.193 5.632-.072 1.317 1.369.852 4.016-1.268 7.307 3.27 2.173 4.76 4.433 4.1 6.245-.626 1.715-2.985 2.516-6.663 2.175-.242 3.59-1.372 5.825-3.134 6.165a2.562 2.562 0 0 1-.466.043zM86.122 67.5l.237.527c.242.534.47.99.7 1.393 1.175 2.084 2.423 3.145 3.525 2.939 1.3-.25 2.184-2.448 2.318-5.737l.023-.564.56.067c3.384.4 5.652-.169 6.114-1.438.5-1.35-1.084-3.378-4.119-5.294l-.457-.287.3-.447c2.006-2.961 2.648-5.429 1.674-6.442-.736-.764-2.357-.656-4.447.3-.475.216-1 .491-1.552.815l-.5.293-.239-.528c-.243-.538-.474-1-.7-1.411-1.16-2.054-2.472-3.155-3.518-2.941-1.3.251-2.192 2.449-2.326 5.736l-.023.564-.561-.067a17.227 17.227 0 0 0-1.9-.127h-.049c-2.279 0-3.8.57-4.159 1.569-.373 1.015.429 2.441 2.2 3.916a18.608 18.608 0 0 0 1.956 1.393l.459.288-.3.448a18.945 18.945 0 0 0-1.138 1.854c-1.1 2.112-1.3 3.777-.541 4.566s2.421.661 4.585-.362c.447-.211.91-.463 1.379-.736zm4.165 4.723c-1.31 0-2.579-1.987-3.084-2.887-.252-.445-.5-.944-.758-1.523l-.182-.406.372-.243a28.806 28.806 0 0 0 2.38-1.756l.209-.17.26.072a28.76 28.76 0 0 0 2.822.64l.448.078-.015.454a18.137 18.137 0 0 1-.16 1.915c-.319 2.227-1.059 3.61-2.031 3.8a1.3 1.3 0 0 1-.26.022zm-2.706-4.437c.18.382.355.725.532 1.036.967 1.718 1.893 2.413 2.229 2.35.318-.061.916-.907 1.2-2.92.06-.427.1-.88.131-1.354a29.238 29.238 0 0 1-2.211-.512c-.632.506-1.262.975-1.881 1.396zm-6.463 1.459a1.789 1.789 0 0 1-1.339-.471c-.707-.735-.5-2.33.567-4.377a19.125 19.125 0 0 1 1.156-1.9l.268-.4.419.236c.778.437 1.592.847 2.418 1.218l.226.1.065.239a29.31 29.31 0 0 0 1 3.035l.162.413-.381.227c-.531.315-1.035.588-1.5.809a7.621 7.621 0 0 1-3.06.867zm.155-4.365c-.971 1.86-.97 2.932-.74 3.169s1.283.285 3.194-.618c.324-.154.671-.335 1.034-.541a31.314 31.314 0 0 1-.805-2.487c-.629-.287-1.249-.6-1.853-.924-.326.494-.603.964-.83 1.398zm4.927 2.378-.234-.614a27.29 27.29 0 0 1-.637-1.871l-.314-1.035 1.006.4c.309.121.578.229.853.329q.616.226 1.226.424l.94.307-.783.6c-.508.391-1.013.757-1.512 1.092zm.462-1.758c.017.049.033.1.05.144.04-.027.079-.055.118-.085zm8.818.569a17.332 17.332 0 0 1-2.1-.138l-.453-.055-.006-.455a29.706 29.706 0 0 0-.22-3.207l-.03-.237.162-.178a30.573 30.573 0 0 0 1.807-2.174l.287-.382.406.254a18.146 18.146 0 0 1 1.931 1.37c1.736 1.437 2.533 2.807 2.185 3.759-.349.932-1.811 1.443-3.974 1.443zm-1.528-1.126c2.807.277 4.347-.223 4.512-.678.113-.31-.293-1.289-1.869-2.594a16.182 16.182 0 0 0-1.419-1.035c-.439.564-.913 1.13-1.414 1.689.096.887.16 1.765.185 2.618zm-1.191.911-.628-.113c-.569-.1-1.162-.226-1.785-.38l-.963-.239.742-.658c.351-.311.7-.63 1.044-.961.143-.138.279-.276.416-.413l.95-.951.1 1.11q.091 1.015.109 1.967zm-1.195-1.287.116.025c0-.043 0-.086-.005-.128zm-2.371.481-.272-.081a35.005 35.005 0 0 1-1.992-.658 36.149 36.149 0 0 1-1.718-.685l-.237-.1-.064-.25a35.157 35.157 0 0 1-.445-1.984 38.715 38.715 0 0 1-.3-1.82l-.034-.248.17-.182c.417-.444.848-.887 1.3-1.322.556-.534 1.1-1.021 1.634-1.477l.216-.183.273.081a32.168 32.168 0 0 1 3.672 1.333l.238.1.063.25c.165.646.315 1.307.446 1.985.12.63.219 1.251.3 1.864l.034.248-.171.183a34.423 34.423 0 0 1-2.905 2.762zm-3.332-2.284c.465.2.938.385 1.428.564.57.209 1.122.391 1.661.557q.7-.6 1.381-1.256c.363-.35.712-.7 1.051-1.06a35.123 35.123 0 0 0-.261-1.563 33.153 33.153 0 0 0-.37-1.675c-.464-.2-.939-.385-1.427-.564q-.819-.3-1.625-.545c-.449.389-.907.8-1.37 1.247q-.567.545-1.09 1.1c.072.5.155 1.008.254 1.52.105.572.23 1.13.364 1.676zm-1.092.689-.977-.472q-.728-.353-1.4-.727l-.525-.292.363-.479c.319-.42.65-.841 1.009-1.263l.726-.854.2 1.211c.042.245.083.492.131.742q.107.544.227 1.077zm-3.039-1.577-.406-.254a18.259 18.259 0 0 1-1.969-1.4c-1.735-1.434-2.533-2.8-2.185-3.756.442-1.2 2.7-1.736 6.07-1.315l.451.056.005.456a29.481 29.481 0 0 0 .228 3.257l.029.236-.16.178c-.634.7-1.232 1.427-1.775 2.154zm-.614-5.82c-1.953 0-2.855.475-2.964.775s.293 1.288 1.869 2.59a16.064 16.064 0 0 0 1.454 1.06c.434-.561.9-1.119 1.385-1.664a31.894 31.894 0 0 1-.2-2.676 15.12 15.12 0 0 0-1.548-.084zm11.532 5.713-.215-1.263c-.041-.241-.081-.483-.13-.73a33.08 33.08 0 0 0-.225-1.077l-.236-1.057.974.472c.5.243.971.493 1.431.747l.527.293-.364.48c-.326.427-.669.857-1.038 1.289zm2.222-2.753-.417-.235A29.593 29.593 0 0 0 92 57.549l-.226-.1-.065-.239a29.606 29.606 0 0 0-.985-3.011l-.162-.413.381-.227c2.779-1.652 5.074-2.112 5.928-1.231.691.72.5 2.281-.521 4.284a18.183 18.183 0 0 1-1.209 2.009zm-2.22-2.32a34 34 0 0 1 1.892.941 15.955 15.955 0 0 0 .877-1.5c.924-1.813.92-2.854.7-3.085a.879.879 0 0 0-.584-.141 8.664 8.664 0 0 0-3.68 1.324c.289.776.556 1.601.795 2.465zM84.08 59l-.1-1.112c-.062-.671-.1-1.347-.114-2.014l-.013-.638.628.113q.89.16 1.825.392l.959.241-.739.656q-.522.462-1.036.955c-.179.171-.351.346-.523.519zm.851-2.5c0 .056.005.115.008.173l.149-.141-.157-.032zm6.667.854-1.154-.454a19.642 19.642 0 0 0-1.525-.543l-1.33-.43.779-.6c.517-.4 1.021-.769 1.508-1.095l.545-.367.233.614c.223.586.432 1.2.629 1.845zm-1.787-1.808.14.049-.042-.119zm-2.4.33-.261-.073a28.112 28.112 0 0 0-2.85-.636l-.447-.077.014-.454a17.826 17.826 0 0 1 .163-1.936c.316-2.225 1.056-3.608 2.028-3.8 1.35-.254 2.7 1.713 3.347 2.86.257.456.515.975.768 1.544l.18.405-.369.243a28.67 28.67 0 0 0-2.362 1.748zm-2.48-1.657c.781.146 1.52.312 2.239.507a30.35 30.35 0 0 1 1.866-1.394 16.83 16.83 0 0 0-.542-1.056c-.91-1.615-1.774-2.35-2.193-2.35h-.047c-.307.061-.906.907-1.192 2.92a15.26 15.26 0 0 0-.13 1.374z" transform="translate(-9.319 -10.506)" style="fill:#6f0013"/>
            </g>
        </g>
    </g>
    <text transform="translate(53 65)" style="font-size:38px;font-family:Nunito-ExtraBold,Nunito;font-weight:800;fill:#fff"><tspan x="-38.513" y="0">FPO</tspan></text>
</svg>
