<svg xmlns="http://www.w3.org/2000/svg" width="72" height="72" viewBox="0 0 72 72">
    <g data-name="Road sign icon">
        <path data-name="Rectangle 330" style="fill:none" d="M0 0h72v72H0z"/>
        <g data-name="Road sign">
            <path data-name="Path 983" d="M50.402 36.385H21.936a1.266 1.266 0 0 1-1.257-1.254V19.952a1.266 1.266 0 0 1 1.257-1.257h28.466a1.309 1.309 0 0 1 .8.285l9.2 7.59a1.27 1.27 0 0 1 0 1.944l-9.2 7.59a1.241 1.241 0 0 1-.8.285zm-27.213-2.51h26.777l7.674-6.333-7.674-6.334H23.189z"/>
            <path data-name="Rectangle 375" d="M38.071 35.131h2.513v4.959h-2.513z"/>
            <path data-name="Path 984" d="M33.094 11.943a2.48 2.48 0 1 1 4.959 0v8.007h2.513v-8.007a4.993 4.993 0 1 0-9.986 0v8.007h2.513z"/>
            <path data-name="Path 985" d="M30.581 55.271v7.473a1.257 1.257 0 1 0 2.513 0v-7.473z"/>
            <path data-name="Path 986" d="M38.071 55.271v7.473a1.257 1.257 0 1 0 2.513 0v-7.473z"/>
            <path data-name="Rectangle 376" d="M30.581 35.131h2.513v4.959h-2.513z"/>
            <path data-name="Path 987" d="M50.067 56.527H21.601a1.309 1.309 0 0 1-.8-.285l-9.2-7.59a1.27 1.27 0 0 1 0-1.944l9.2-7.59a1.241 1.241 0 0 1 .8-.285h28.466a1.266 1.266 0 0 1 1.257 1.257v15.18a1.266 1.266 0 0 1-1.257 1.257zm-28.03-2.513h26.774V41.347H22.053L14.38 47.68l7.674 6.333z"/>
        </g>
    </g>
</svg>
