<svg data-name="Moniker Desktop" xmlns="http://www.w3.org/2000/svg" width="250" height="133.958" viewBox="0 0 250 133.958">
    <path data-name="Path 904" d="M32.273 70.545a12.55 12.55 0 0 0-2.082-5.423 23.952 23.952 0 0 0-3.794-4.23 40.329 40.329 0 0 0-4.625-3.5 55.89 55.89 0 0 1-4.6-3.316 23.68 23.68 0 0 1-3.72-3.711 9.418 9.418 0 0 1-1.959-4.576 8.477 8.477 0 0 1 1.4-6.616 8.9 8.9 0 0 1 6.115-3.242 8.671 8.671 0 0 1 4.049.346 8.274 8.274 0 0 1 3.456 2.206 9.8 9.8 0 0 1 2.205 3.934 12.291 12.291 0 0 1 .222 5.547c-.033.107.148.132.535.074s.609-.14.642-.247l2.255-14.813c.033-.107-.148-.132-.535-.074a.984.984 0 0 0-.642.247 2.773 2.773 0 0 1-.922 1.415 3.908 3.908 0 0 1-1.926.741 5.662 5.662 0 0 1-1.778-.041 58.275 58.275 0 0 1-2.057-.379 22.919 22.919 0 0 0-2.387-.329 12.289 12.289 0 0 0-2.773.107 14.762 14.762 0 0 0-6.172 2.345 16.658 16.658 0 0 0-4.526 4.551 18.059 18.059 0 0 0-2.839 12.6 12.687 12.687 0 0 0 2.057 5.464 21.047 21.047 0 0 0 3.7 4.09 40.046 40.046 0 0 0 4.526 3.325q2.419 1.531 4.5 3.144a20.116 20.116 0 0 1 3.627 3.616 9.832 9.832 0 0 1 1.934 4.65q.716 4.876-1.522 7.769T17.073 89.9a10.894 10.894 0 0 1-6.213-.7 11.366 11.366 0 0 1-4.411-3.53 13.721 13.721 0 0 1-2.411-5.333 15.794 15.794 0 0 1-.156-6.123c-.016-.1-.222-.115-.609-.058s-.609.14-.642.247L.03 91.983c.016.1.214.115.609.058s.609-.14.642-.247a2.562 2.562 0 0 1 .963-1.394 5.506 5.506 0 0 1 2.131-.658 6.486 6.486 0 0 1 2.395.132c.856.2 1.8.444 2.823.724a24.169 24.169 0 0 0 3.415.667 15.6 15.6 0 0 0 4.246-.115 18.721 18.721 0 0 0 7.382-2.6 16.923 16.923 0 0 0 5-4.74 16.415 16.415 0 0 0 2.551-6.189 20.973 20.973 0 0 0 .115-7.11z" transform="translate(-.03 -5.8)" style="fill:#1e1e1e"/>
    <path data-name="Path 905" d="m97.412 76.4-.782-.716a53.994 53.994 0 0 1-2.008 2.708 15.021 15.021 0 0 1-2.222 2.289 11.455 11.455 0 0 1-2.732 1.687 13.489 13.489 0 0 1-3.514.971q-2.58.383-3.769-.988a8 8 0 0 1-1.588-4.1 23.113 23.113 0 0 1-.132-4.427 52.51 52.51 0 0 1 .56-5.366l1.992-.3a32.885 32.885 0 0 0 6.648-1.658 20.548 20.548 0 0 0 5.176-2.724 11.072 11.072 0 0 0 3.2-3.563 6.593 6.593 0 0 0 .741-4.181 5.792 5.792 0 0 0-.971-2.461 6.033 6.033 0 0 0-2.122-1.871 10.589 10.589 0 0 0-3.21-1.07 12.97 12.97 0 0 0-4.148.008 15.557 15.557 0 0 0-6.8 2.74 20.616 20.616 0 0 0-5.263 5.422 22.5 22.5 0 0 0-2.716 5.645 17.828 17.828 0 0 0-1.111-3.983 11.065 11.065 0 0 0-2.205-3.44 8.512 8.512 0 0 0-3.415-2.173 9.678 9.678 0 0 0-4.683-.321 7.958 7.958 0 0 0-4.987 3.226 23.081 23.081 0 0 0-3.711 7.258 10.2 10.2 0 0 0-.1-3.983 6.175 6.175 0 0 0-1.383-2.7 4.815 4.815 0 0 0-2.28-1.4 6.529 6.529 0 0 0-2.74-.156 8.936 8.936 0 0 0-4.765 2.477 12.117 12.117 0 0 0-3.267 5.423l1.169.28a12.4 12.4 0 0 1 1.852-3.777 3.361 3.361 0 0 1 2.066-1.325 1.66 1.66 0 0 1 1.728.724 3.151 3.151 0 0 1 .321 2.444L38.11 114l8.04-1.193 4.23-26.417a4.244 4.244 0 0 0 2.419 2.09 7.806 7.806 0 0 0 3.893.288 16.315 16.315 0 0 0 7.382-3.094 23.324 23.324 0 0 0 5.711-6.008 26.633 26.633 0 0 0 3.037-6.3c.016.165.033.329.058.486a14.644 14.644 0 0 0 1.588 4.9 11.376 11.376 0 0 0 2.979 3.548 10.809 10.809 0 0 0 4.024 1.967 11.972 11.972 0 0 0 4.74.206 13.646 13.646 0 0 0 6.4-2.568 19.66 19.66 0 0 0 4.765-5.5zM82.1 61.588a23.419 23.419 0 0 1 1.226-4.707 10.571 10.571 0 0 1 1.992-3.349 5.223 5.223 0 0 1 3.193-1.6 2.787 2.787 0 0 1 2.337.518 4.824 4.824 0 0 1 1.19 2.95 16.711 16.711 0 0 1 .132 3.679 7.918 7.918 0 0 1-1.111 3.448 8.29 8.29 0 0 1-2.979 2.814 14.943 14.943 0 0 1-5.407 1.7l-1.4.206q.383-3 .823-5.662zM65.679 66.32a55.174 55.174 0 0 1-.815 6.987 46.442 46.442 0 0 1-1.745 6.781 17.764 17.764 0 0 1-2.568 5.094 8.388 8.388 0 0 1-1.728 1.572 5.012 5.012 0 0 1-2.008.716q-4.95.728-6.073-3.325l1.9-12.122q.593-2.58 1.473-5.308a33.8 33.8 0 0 1 2.016-4.971 17.746 17.746 0 0 1 2.526-3.8 5.166 5.166 0 0 1 3.086-1.819 2.677 2.677 0 0 1 2.436.658q.889.889 1.308 3.761a30.113 30.113 0 0 1 .181 5.777z" transform="translate(-6.772 -8.903)" style="fill:#1e1e1e"/>
    <path data-name="Path 906" d="M114.318 67.807a11.313 11.313 0 0 0 2.222 3.514 8.811 8.811 0 0 0 3.391 2.247 9.149 9.149 0 0 0 4.658.362q6.2-.913 8.863-9.382a6.218 6.218 0 0 0 1.424 5.555 5.662 5.662 0 0 0 5.2 1.531 8.263 8.263 0 0 0 2.691-.93 11.187 11.187 0 0 0 2.576-1.926c.247-.247.486-.5.724-.774l-.337 2.107 8.114-1.2 2.864-18.829a2.966 2.966 0 0 1 2.551 1.432 13.029 13.029 0 0 1 1.481 3.4q.6 2.024 1.243 4.337a15.37 15.37 0 0 0 1.827 4.181 7.962 7.962 0 0 0 3.218 2.88 9.324 9.324 0 0 0 5.506.5q4.8-.716 7.094-3.769a9.051 9.051 0 0 0 1.712-7.036 5.119 5.119 0 0 0-.543-1.613 5.989 5.989 0 0 0-1.086-1.465 4.111 4.111 0 0 0-1.58-.971 4.067 4.067 0 0 0-1.95-.165 3.46 3.46 0 0 0-2.5 1.424 3.335 3.335 0 0 0-.617 2.428 2.463 2.463 0 0 0 1.02 1.81 8.855 8.855 0 0 0 1.753.905 15.259 15.259 0 0 1 1.736.8 1.885 1.885 0 0 1 .971 1.473 3.034 3.034 0 0 1-.905 2.543 4.417 4.417 0 0 1-2.724 1.457c-1.522.222-2.625.025-3.292-.609a5.756 5.756 0 0 1-1.514-2.6 20.767 20.767 0 0 1-.749-3.769 19.644 19.644 0 0 0-.914-4.123 11.354 11.354 0 0 0-2.09-3.687 8.347 8.347 0 0 0-4.172-2.477 11.259 11.259 0 0 0 2.5-3.234c.6-1.193 1.169-2.312 1.7-3.341a18.745 18.745 0 0 1 1.638-2.691 3.3 3.3 0 0 1 2.247-1.35c.642-.1 1.07 0 1.284.263a1.757 1.757 0 0 1 .387.848 1.249 1.249 0 0 1-.049.683 4.791 4.791 0 0 1-.263.494 2.233 2.233 0 0 0-.247.6 2.153 2.153 0 0 0-.025.872 2.44 2.44 0 0 0 .955 1.6 2.914 2.914 0 0 0 2.288.411 3.6 3.6 0 0 0 2.782-1.843 5.152 5.152 0 0 0 .6-3.333 4.39 4.39 0 0 0-1.983-3.21 5.543 5.543 0 0 0-3.958-.732 5.94 5.94 0 0 0-3.185 1.415 10.771 10.771 0 0 0-2.164 2.7 34.089 34.089 0 0 0-1.687 3.382 22.01 22.01 0 0 1-1.835 3.4 14.371 14.371 0 0 1-2.477 2.856 7.412 7.412 0 0 1-3.711 1.679l5.8-36.679q.123-.173-.173-.123l-12.426 2.14c-.181.831-.222 1.243-.123 1.226l3.975-.667c.3-.041.453 0 .477.156l-8.016 50.364a12.381 12.381 0 0 1-.963 1.3 5.321 5.321 0 0 1-3.218 1.95 1.383 1.383 0 0 1-1.473-.5 2.169 2.169 0 0 1-.337-1.5l4.724-29.206-7.851 1.992-.93 3.382a4.181 4.181 0 0 0-2.345-2.592 6.539 6.539 0 0 0-3.613-.444 17.164 17.164 0 0 0-7.719 3.144 23.747 23.747 0 0 0-5.752 5.942 24.078 24.078 0 0 0-3.358 7.357 18.525 18.525 0 0 0-.518 7.464 18.044 18.044 0 0 0 1.16 4.238zm6.929-5.892a47.4 47.4 0 0 1 .8-7.094 39.772 39.772 0 0 1 1.893-6.839 14.813 14.813 0 0 1 2.979-5.078 10.248 10.248 0 0 1 2.024-1.621 4.867 4.867 0 0 1 1.72-.593 4.555 4.555 0 0 1 3.637.856 4.95 4.95 0 0 1 1.81 3.316L133.953 58.3a40.854 40.854 0 0 1-3.506 9.949q-1.963 3.53-4.765 3.95a3.2 3.2 0 0 1-2.708-.691c-.724-.617-1.226-1.893-1.506-3.81a33.05 33.05 0 0 1-.214-5.777z" transform="translate(-19.972 -2.127)" style="fill:#1e1e1e"/>
    <path data-name="Path 907" d="m254.832 2.139 6.123-.905q.148-.025.247-.642t-.05-.592L246.61 2.156q-.148.025-.247.642t.049.593l6.123-.905c.3-.041.461.033.486.23l-5.95 36.7q-1.259 7.8-4.831 12.18t-10.583 5.415q-3.987.593-6.2-1.119a8.062 8.062 0 0 1-2.773-5.473 23.334 23.334 0 0 1-.189-4.345 38.408 38.408 0 0 1 .634-5.374l5.39-34.358a.515.515 0 0 1 .469-.37l6.641-.988c.1-.016.189-.23.28-.642s.082-.617-.016-.6L211.248 7.4q-.148.025-.247.642t.049.593l6.641-.988c.346-.049.486.033.411.239l-5.234 32.9a25.1 25.1 0 0 0-.165 7.563 16.034 16.034 0 0 0 1.621 5.111 11.055 11.055 0 0 0 3.242 3.818 12.617 12.617 0 0 0 4.987 2.123 19.685 19.685 0 0 0 6.872.041q8.48-1.259 13.019-6.3a24.6 24.6 0 0 0 5.769-12.994l6.04-37.625a.59.59 0 0 1 .543-.379z" transform="translate(-37.275 .001)" style="fill:#1e1e1e"/>
    <path data-name="Path 908" d="M295.823 32.607a17.835 17.835 0 0 0-1.152-4.205 11.2 11.2 0 0 0-2.206-3.448 8.512 8.512 0 0 0-3.415-2.173 9.678 9.678 0 0 0-4.683-.321 7.992 7.992 0 0 0-4.987 3.226 23.082 23.082 0 0 0-3.711 7.258 10.2 10.2 0 0 0-.1-3.983 6.221 6.221 0 0 0-1.383-2.7 4.815 4.815 0 0 0-2.28-1.4 6.529 6.529 0 0 0-2.74-.156 8.936 8.936 0 0 0-4.765 2.477 12.118 12.118 0 0 0-3.267 5.423l1.169.28a12.211 12.211 0 0 1 1.852-3.777 3.361 3.361 0 0 1 2.066-1.325 1.66 1.66 0 0 1 1.728.724 3.151 3.151 0 0 1 .321 2.444l-8.13 50.983 8.04-1.193 4.23-26.417a4.244 4.244 0 0 0 2.419 2.09 7.806 7.806 0 0 0 3.893.288 16.314 16.314 0 0 0 7.382-3.094 23.456 23.456 0 0 0 5.711-6.008 26.492 26.492 0 0 0 3.415-7.481 18.023 18.023 0 0 0 .584-7.514zm-8.123 1.654a55.18 55.18 0 0 1-.815 6.987 46.444 46.444 0 0 1-1.745 6.781 17.764 17.764 0 0 1-2.568 5.094 8.7 8.7 0 0 1-1.728 1.58 5.013 5.013 0 0 1-2.008.716q-4.95.728-6.073-3.325l1.9-12.122q.593-2.58 1.473-5.308a34.29 34.29 0 0 1 2.016-4.979 17.446 17.446 0 0 1 2.526-3.8 5.166 5.166 0 0 1 3.086-1.819 2.677 2.677 0 0 1 2.436.658q.889.889 1.308 3.761a30.113 30.113 0 0 1 .181 5.777z" transform="translate(-45.982 -3.951)" style="fill:#1e1e1e"/>
    <path data-name="Path 909" d="M184.2 126.958q-.815-5.53-4.864-7.876t-10.32-1.942a26.514 26.514 0 0 0 6.6-2.263 18.647 18.647 0 0 0 4.946-3.522 12.6 12.6 0 0 0 2.913-4.5 10.358 10.358 0 0 0 .51-5.2 10.15 10.15 0 0 0-5.069-7.769q-4.283-2.456-11.661-1.366l-19.404 2.87q-.148.025-.247.642t.049.593l6.641-.988c.346-.049.486.033.411.239l-8.18 51.665c-.016.206-.206.329-.543.387l-6.641.988c-.1.016-.181.239-.239.675s-.041.65.058.634l24.5-3.629a29.513 29.513 0 0 0 8.945-2.724 25.736 25.736 0 0 0 6.732-4.691 17.849 17.849 0 0 0 4.032-5.876 11.913 11.913 0 0 0 .831-6.345zm-19.076-32.539a.515.515 0 0 1 .469-.37l2.288-.337a13.368 13.368 0 0 1 5-.066q1.6.444 1.992 3.02a18.981 18.981 0 0 1 .107 3.794c-.082 1.5-.23 3-.461 4.518s-.494 2.938-.8 4.263a14.554 14.554 0 0 1-.979 3.045 18.761 18.761 0 0 1-1.062 2.008 5.345 5.345 0 0 1-1.086 1.292 4.912 4.912 0 0 1-1.424.815 10.878 10.878 0 0 1-2.148.51l-5.6.831 3.711-23.322zm8.954 32.161a58.578 58.578 0 0 1-.461 5.045 42.747 42.747 0 0 1-.913 4.773 21.276 21.276 0 0 1-1.259 3.7 9.638 9.638 0 0 1-1.4 2.28 7.386 7.386 0 0 1-3.794 2.411 22.676 22.676 0 0 1-2.633.543l-6.345.938c-.3.041-.436-.033-.411-.239l4.362-27.042 5.826-.864q3.543-.531 5.02.535a4.845 4.845 0 0 1 1.827 3.423 23.083 23.083 0 0 1 .173 4.5z" transform="translate(-24.591 -16.266)" style="fill:#1e1e1e"/>
    <path data-name="Path 910" d="m238.55 81.44-37.633 5.58q-.148.025-.247.642t.049.593l6.567-.971c.3-.041.461.033.486.23l-8.254 51.673c-.016.206-.206.329-.543.387l-6.567.971c-.1.016-.189.239-.28.683s-.082.65.016.642l41.691-6.18a.2.2 0 0 0 .189-.255l2.839-17.463c-.016-.1-.222-.115-.609-.058s-.609.14-.642.247a22.3 22.3 0 0 1-1.934 6.016 21.276 21.276 0 0 1-4.049 5.728 25.624 25.624 0 0 1-6.328 4.633 26.686 26.686 0 0 1-8.682 2.716l-4.279.634c-.3.041-.461-.033-.486-.23l4.337-26.738 1.473-.222a7.115 7.115 0 0 1 3.9.362 6.07 6.07 0 0 1 2.568 2.033 7.671 7.671 0 0 1 1.267 3.21 11.608 11.608 0 0 1 0 3.81c-.033.107.148.132.535.074.444-.066.683-.148.716-.255L228 98.771c.033-.107-.173-.123-.609-.058q-.592.086-.642.247a12.341 12.341 0 0 1-3.465 6.921 12.653 12.653 0 0 1-7.423 3.588l-1.473.222 3.728-23.7a.609.609 0 0 1 .543-.387l5.168-.765a12.039 12.039 0 0 1 5.975.4 8.448 8.448 0 0 1 3.843 2.79 10.157 10.157 0 0 1 1.86 4.4 15.991 15.991 0 0 1 .025 5.242c-.033.107.148.132.535.074.444-.066.683-.148.716-.255l1.95-15.825c.123-.173.066-.239-.181-.2z" transform="translate(-33.952 -14.364)" style="fill:#1e1e1e"/>
    <path data-name="Path 911" d="M110.367 109.048a2.33 2.33 0 0 0-1.843-.494 2.485 2.485 0 0 0-1.728 1.02 2.617 2.617 0 0 0-.453 1.975 2.384 2.384 0 0 0 .979 1.6 2.515 2.515 0 0 0 1.95.453 2.346 2.346 0 0 0 1.629-.988 2.379 2.379 0 0 0 .453-1.819 2.656 2.656 0 0 0-.979-1.761z" transform="translate(-18.811 -19.176)" style="fill:#1e1e1e"/>
    <path data-name="Path 912" d="M112.088 135.741a7.8 7.8 0 0 1-1.49 2.675 3.131 3.131 0 0 1-1.786.963 1.076 1.076 0 0 1-1.078-.321 2.327 2.327 0 0 1-.453-1.16 6.528 6.528 0 0 1 .3-2.609c.3-1.053.625-2.181.979-3.382s.667-2.436.938-3.687a9.655 9.655 0 0 0 .173-3.465 3.518 3.518 0 0 0-1.177-2.189 3.134 3.134 0 0 0-2.65-.617 5.474 5.474 0 0 0-2.979 1.473 6.935 6.935 0 0 0-1.893 3.193l.683.165a6.078 6.078 0 0 1 1.07-2.131 2.184 2.184 0 0 1 1.21-.881 1.145 1.145 0 0 1 .913.173 1.711 1.711 0 0 1 .444 1.07 8.27 8.27 0 0 1-.206 3c-.263 1.152-.576 2.329-.93 3.53s-.667 2.4-.922 3.6a9.026 9.026 0 0 0-.173 3.2 3.363 3.363 0 0 0 1.292 2.28 3.619 3.619 0 0 0 2.856.56 5.357 5.357 0 0 0 1.687-.56 7.149 7.149 0 0 0 1.564-1.111 7.922 7.922 0 0 0 1.317-1.6 8.467 8.467 0 0 0 .946-2.024l-.642-.165z" transform="translate(-17.866 -21.526)" style="fill:#1e1e1e"/>
    <path data-name="Path 913" d="M135.363 131.953a8.988 8.988 0 0 1-1.514 2.658 2.917 2.917 0 0 1-1.761.979 1.111 1.111 0 0 1-1.095-.321 2.238 2.238 0 0 1-.477-1.152 6.307 6.307 0 0 1 .255-2.4c.263-.971.56-2.033.889-3.177s.609-2.312.839-3.514a10.1 10.1 0 0 0 .107-3.391 4.074 4.074 0 0 0-1.391-2.749 3.471 3.471 0 0 0-2.74-.625 7.189 7.189 0 0 0-3.662 2.008 15.027 15.027 0 0 0-3.423 5.695 9.552 9.552 0 0 0 .132-2.954 4.753 4.753 0 0 0-.683-1.975 2.652 2.652 0 0 0-1.318-1.035 3.562 3.562 0 0 0-1.753-.156 5.069 5.069 0 0 0-2.806 1.448 7.261 7.261 0 0 0-1.852 3.185l.683.165a6.386 6.386 0 0 1 1.045-2.238 2.041 2.041 0 0 1 1.218-.774.957.957 0 0 1 1 .42 2.046 2.046 0 0 1 .2 1.506l-2.518 15.792 4.674-.691 1.555-9.908a59 59 0 0 1 1.457-3.481 17.126 17.126 0 0 1 1.292-2.362 5.465 5.465 0 0 1 1.284-1.388 3.168 3.168 0 0 1 1.383-.576 1.316 1.316 0 0 1 1.21.346 2.26 2.26 0 0 1 .56 1.276 8.916 8.916 0 0 1-.1 3.012c-.206 1.07-.461 2.131-.749 3.2s-.551 2.115-.765 3.135a8.124 8.124 0 0 0-.132 2.823 3.139 3.139 0 0 0 1.276 2.131 3.7 3.7 0 0 0 2.839.543 6.374 6.374 0 0 0 3.16-1.564 7.987 7.987 0 0 0 2.362-3.72l-.683-.165z" transform="translate(-20.01 -20.874)" style="fill:#1e1e1e"/>
</svg>
