<svg xmlns="http://www.w3.org/2000/svg" width="287.572" height="84" viewBox="0 0 287.572 84">
    <g data-name="Group 1092">
        <g data-name="Group 1088">
            <g data-name="Group 1085">
                <path data-name="Path 2440" d="M1642.4 507.232a2.707 2.707 0 0 1-.875-.145 42.1 42.1 0 0 1-9.723-4.517c-4.451-3.077-4.449-7.322-4.448-16.624v-11.14a2.277 2.277 0 0 1 2.411-2.107 2.719 2.719 0 0 1 .866.142c3.814 1.278 9.139 4.442 12.851 12.254a26.176 26.176 0 0 1 1.217 20.676 2.41 2.41 0 0 1-2.299 1.461z" transform="translate(-1371.433 -455.067)" style="fill:#ff7f51"/>
            </g>
            <g data-name="Group 1086">
                <path data-name="Path 2441" d="M1574.445 507.232a2.409 2.409 0 0 1-2.3-1.46 26.174 26.174 0 0 1 1.217-20.677c3.712-7.812 9.037-10.976 12.851-12.253a2.72 2.72 0 0 1 .866-.142 2.277 2.277 0 0 1 2.411 2.107v11.14c0 9.3 0 13.547-4.448 16.624a42.1 42.1 0 0 1-9.723 4.517 2.708 2.708 0 0 1-.874.144z" transform="translate(-1343.434 -455.067)" style="fill:#ff7f51"/>
            </g>
            <g data-name="Group 1087">
                <path data-name="Path 2442" d="M1582.141 496.435a.994.994 0 0 1-.243-1.957c.168-.042 16.745-4.406 16.745-18.488a.994.994 0 1 1 1.988 0c0 15.64-18.064 20.369-18.246 20.415a.978.978 0 0 1-.244.03z" transform="translate(-1348.645 -456.199)" style="fill:#b83b4d"/>
                <path data-name="Path 2443" d="M1596.211 497.4a10.889 10.889 0 0 1-6.2-2.186.994.994 0 0 1 1.2-1.586c.231.173 5.741 4.216 9.321-.5a.994.994 0 0 1 1.583 1.2 7.171 7.171 0 0 1-5.904 3.072z" transform="translate(-1352.823 -464.952)" style="fill:#b83b4d"/>
                <path data-name="Path 2444" d="M1634.109 491.936a1.014 1.014 0 0 1-.244-.03c-.182-.046-18.2-4.776-18.2-20.415v-4.625a.994.994 0 1 1 1.988 0v4.625c0 14.109 16.534 18.446 16.7 18.488a.994.994 0 0 1-.242 1.957z" transform="translate(-1365.666 -451.7)" style="fill:#b83b4d"/>
                <path data-name="Path 2445" d="M1626.67 497.4a7.172 7.172 0 0 1-5.908-3.064.994.994 0 1 1 1.583-1.2c3.58 4.711 9.1.668 9.329.494a.994.994 0 0 1 1.2 1.587 10.906 10.906 0 0 1-6.204 2.183z" transform="translate(-1368.081 -464.952)" style="fill:#b83b4d"/>
            </g>
        </g>
        <g data-name="Group 1089">
            <path data-name="Path 2446" d="M1137.932 575.16a5 5 0 0 1 .948 3.1 4.826 4.826 0 0 1-1.854 3.991 8.009 8.009 0 0 1-5.108 1.471h-7.418a1.873 1.873 0 0 1-2.066-2.066v-15.822a1.874 1.874 0 0 1 2.066-2.067h7.132a7.975 7.975 0 0 1 4.939 1.387 4.5 4.5 0 0 1 1.825 3.792 4.594 4.594 0 0 1-.834 2.731 4.747 4.747 0 0 1-2.307 1.713 5 5 0 0 1 2.677 1.77zm-11.194-3.269h4.16a4.324 4.324 0 0 0 2.5-.58 2.034 2.034 0 0 0 .807-1.769 2.1 2.1 0 0 0-.807-1.825 4.324 4.324 0 0 0-2.5-.58h-4.16zm7.217 7.868a2.25 2.25 0 0 0 .792-1.925 2.333 2.333 0 0 0-.792-1.953 4.145 4.145 0 0 0-2.547-.623h-4.67v5.095h4.67a4.3 4.3 0 0 0 2.548-.594z" transform="translate(-1122.437 -499.976)" style="fill:#750010"/>
            <path data-name="Path 2447" d="M1179.088 582.136a1.6 1.6 0 0 1-.637 1.3 2.363 2.363 0 0 1-2.533.254 2.128 2.128 0 0 1-.849-.792l-3.736-5.547a3.347 3.347 0 0 0-1.019-1.061 2.591 2.591 0 0 0-1.358-.325h-2.293v5.717a2.211 2.211 0 0 1-.58 1.613 2.1 2.1 0 0 1-1.571.594 2.052 2.052 0 0 1-2.208-2.208v-15.847a1.874 1.874 0 0 1 2.067-2.067h7.1a7.95 7.95 0 0 1 5.306 1.543 5.552 5.552 0 0 1 1.8 4.457 5.763 5.763 0 0 1-1.274 3.821 6.113 6.113 0 0 1-3.594 2.01 3.724 3.724 0 0 1 1.514.665 5.722 5.722 0 0 1 1.288 1.429l2.151 3.226a2.163 2.163 0 0 1 .426 1.218zm-5.519-10.174a2.99 2.99 0 0 0 0-4.175 4.554 4.554 0 0 0-2.745-.651h-4.217v5.491h4.217a4.479 4.479 0 0 0 2.745-.665z" transform="translate(-1142.098 -499.976)" style="fill:#750010"/>
            <path data-name="Path 2448" d="M1206.018 582.469a8.505 8.505 0 0 1-3.382-3.566 12.945 12.945 0 0 1 0-10.839 8.42 8.42 0 0 1 3.382-3.552 11.334 11.334 0 0 1 10.33 0 8.428 8.428 0 0 1 3.382 3.552 12.949 12.949 0 0 1 0 10.839 8.513 8.513 0 0 1-3.382 3.566 11.22 11.22 0 0 1-10.33 0zm9.085-3.92a9.708 9.708 0 0 0 .014-10.118 5.3 5.3 0 0 0-7.853 0 9.79 9.79 0 0 0 .014 10.118 5.238 5.238 0 0 0 7.825 0z" transform="translate(-1161.4 -499.728)" style="fill:#750010"/>
            <path data-name="Path 2449" d="M1264.645 564.1a2.185 2.185 0 0 1 .58 1.571v15.877a2.221 2.221 0 0 1-.58 1.6 2 2 0 0 1-1.514.609 2.044 2.044 0 0 1-1.642-.737l-9.481-12.141v10.67a2.29 2.29 0 0 1-.552 1.6 1.907 1.907 0 0 1-1.486.609 1.951 1.951 0 0 1-1.5-.609 2.252 2.252 0 0 1-.566-1.6v-15.88a2.183 2.183 0 0 1 .58-1.571 2 2 0 0 1 1.515-.609 1.914 1.914 0 0 1 1.613.737l9.481 12.056v-10.613a2.214 2.214 0 0 1 .566-1.571 1.919 1.919 0 0 1 1.472-.609 2 2 0 0 1 1.514.611z" transform="translate(-1184.31 -499.838)" style="fill:#750010"/>
            <path data-name="Path 2450" d="M1294.758 582.483a8.376 8.376 0 0 1-3.4-3.566 12.976 12.976 0 0 1 0-10.853 8.4 8.4 0 0 1 3.4-3.552 11.152 11.152 0 0 1 11.547.792 2.122 2.122 0 0 1 .594.679 1.891 1.891 0 0 1 .17.85 1.979 1.979 0 0 1-.411 1.259 1.234 1.234 0 0 1-1 .524 2.183 2.183 0 0 1-.693-.1 2.7 2.7 0 0 1-.665-.354 9.518 9.518 0 0 0-2.095-1.061 6.4 6.4 0 0 0-2.065-.325 4.966 4.966 0 0 0-4.09 1.684 7.82 7.82 0 0 0-1.373 5.023q0 6.736 5.462 6.736a5.98 5.98 0 0 0 1.981-.325 12.567 12.567 0 0 0 2.179-1.061 4.093 4.093 0 0 1 .707-.354 1.97 1.97 0 0 1 .651-.1 1.235 1.235 0 0 1 1 .523 1.982 1.982 0 0 1 .411 1.26 1.858 1.858 0 0 1-.184.863 2.092 2.092 0 0 1-.581.665 11.15 11.15 0 0 1-11.547.793z" transform="translate(-1205.154 -499.728)" style="fill:#750010"/>
            <path data-name="Path 2451" d="M1347.808 564.084a2.142 2.142 0 0 1 .594 1.585v15.877a2.189 2.189 0 0 1-.594 1.6 2.114 2.114 0 0 1-1.585.609 2.093 2.093 0 0 1-1.57-.594 2.21 2.21 0 0 1-.581-1.613v-6.34h-9.2v6.34a2.191 2.191 0 0 1-.594 1.6 2.079 2.079 0 0 1-1.557.609 2.145 2.145 0 0 1-1.585-.594 2.182 2.182 0 0 1-.594-1.613v-15.881a2.045 2.045 0 0 1 2.179-2.18 2.1 2.1 0 0 1 1.571.595 2.175 2.175 0 0 1 .58 1.585v6.031h9.2v-6.029a2.171 2.171 0 0 1 .581-1.585 2.091 2.091 0 0 1 1.57-.595 2.142 2.142 0 0 1 1.585.593z" transform="translate(-1225.063 -499.838)" style="fill:#750010"/>
            <path data-name="Path 2452" d="M1375.584 583.159a2.18 2.18 0 0 1-.594-1.613v-15.877a2.143 2.143 0 0 1 .594-1.585 2.487 2.487 0 0 1 3.227 0 2.145 2.145 0 0 1 .594 1.585v15.877a2.284 2.284 0 0 1-3.821 1.613z" transform="translate(-1246.981 -499.838)" style="fill:#750010"/>
            <path data-name="Path 2453" d="M1393.452 583.184a2.068 2.068 0 0 1-.538-1.529v-15.821a1.874 1.874 0 0 1 2.066-2.067H1405q2.094 0 2.094 1.7 0 1.727-2.094 1.726h-7.783v4.67h7.217q2.094 0 2.094 1.726 0 1.7-2.094 1.7h-7.217v5.011H1405q2.094 0 2.094 1.726 0 1.7-2.094 1.7h-10.02a2.067 2.067 0 0 1-1.528-.542z" transform="translate(-1255.82 -499.976)" style="fill:#750010"/>
            <path data-name="Path 2454" d="M1430.889 582.483a8.376 8.376 0 0 1-3.4-3.566 12.976 12.976 0 0 1 0-10.853 8.4 8.4 0 0 1 3.4-3.552 11.152 11.152 0 0 1 11.548.792 2.13 2.13 0 0 1 .594.679 1.887 1.887 0 0 1 .17.85 1.98 1.98 0 0 1-.411 1.259 1.236 1.236 0 0 1-1 .524 2.184 2.184 0 0 1-.693-.1 2.7 2.7 0 0 1-.665-.354 9.521 9.521 0 0 0-2.095-1.061 6.408 6.408 0 0 0-2.066-.325 4.965 4.965 0 0 0-4.089 1.684 7.819 7.819 0 0 0-1.373 5.023q0 6.736 5.462 6.736a5.98 5.98 0 0 0 1.981-.325 12.563 12.563 0 0 0 2.179-1.061 4.067 4.067 0 0 1 .707-.354 1.97 1.97 0 0 1 .651-.1 1.236 1.236 0 0 1 1 .523 1.984 1.984 0 0 1 .411 1.26 1.858 1.858 0 0 1-.184.863 2.093 2.093 0 0 1-.58.665 11.151 11.151 0 0 1-11.548.793z" transform="translate(-1272.286 -499.728)" style="fill:#750010"/>
            <path data-name="Path 2455" d="M1469.329 583.268a2.112 2.112 0 0 1-.608-1.585v-14.32h-4.585q-2.094 0-2.094-1.812 0-1.782 2.094-1.783h13.585q2.095 0 2.094 1.783 0 1.812-2.094 1.812h-4.585v14.321a2.143 2.143 0 0 1-.594 1.585 2.467 2.467 0 0 1-3.212 0z" transform="translate(-1289.909 -499.976)" style="fill:#750010"/>
            <path data-name="Path 2456" d="M1514.58 581.773a1.716 1.716 0 0 1-.637 1.345 2.162 2.162 0 0 1-1.458.551 1.912 1.912 0 0 1-1.019-.3 1.88 1.88 0 0 1-.736-.892l-1.5-3.34h-9.594l-1.5 3.34a1.916 1.916 0 0 1-.721.892 1.891 1.891 0 0 1-1.033.3 2.214 2.214 0 0 1-1.472-.551 1.7 1.7 0 0 1-.651-1.345 2.263 2.263 0 0 1 .227-.905l7.641-16.048a2.215 2.215 0 0 1 .934-1.032 2.685 2.685 0 0 1 2.688.014 2.505 2.505 0 0 1 .963 1.019l7.642 16.048a2.282 2.282 0 0 1 .226.904zm-13.444-5.971h6.594l-3.283-7.359z" transform="translate(-1305.797 -499.811)" style="fill:#750010"/>
            <path data-name="Path 2457" d="M1542.137 583.2a8.682 8.682 0 0 1-3.142-1.486 1.992 1.992 0 0 1-.609-.665 2.087 2.087 0 0 1 .255-2.138 1.279 1.279 0 0 1 1-.537 1.917 1.917 0 0 1 .609.1 3.828 3.828 0 0 1 .721.354 9.53 9.53 0 0 0 2.462 1.118 10.012 10.012 0 0 0 2.746.354 5.4 5.4 0 0 0 2.859-.623 1.987 1.987 0 0 0 .99-1.783 1.6 1.6 0 0 0-.92-1.415 11.815 11.815 0 0 0-3.269-1.019 18.12 18.12 0 0 1-4.2-1.3 5.446 5.446 0 0 1-2.293-1.9 5 5 0 0 1-.722-2.746 5.352 5.352 0 0 1 1.033-3.212 6.851 6.851 0 0 1 2.859-2.236 10.086 10.086 0 0 1 4.118-.806 10.527 10.527 0 0 1 6.623 2.009 2.252 2.252 0 0 1 .609.693 1.864 1.864 0 0 1 .184.864 1.913 1.913 0 0 1-.439 1.245 1.278 1.278 0 0 1-1 .538 1.908 1.908 0 0 1-.58-.085 4.016 4.016 0 0 1-.75-.368 11.92 11.92 0 0 0-2.137-1.1 7.12 7.12 0 0 0-2.477-.367 4.823 4.823 0 0 0-2.717.665 2.085 2.085 0 0 0-.991 1.825 1.64 1.64 0 0 0 .382 1.118 3.164 3.164 0 0 0 1.274.778 19.362 19.362 0 0 0 2.533.708 14.066 14.066 0 0 1 5.533 2.179 4.4 4.4 0 0 1 1.684 3.651 5.31 5.31 0 0 1-1.005 3.2 6.477 6.477 0 0 1-2.83 2.151 10.892 10.892 0 0 1-4.231.764 15.809 15.809 0 0 1-4.162-.528z" transform="translate(-1327.468 -499.728)" style="fill:#750010"/>
            <path data-name="Path 2458" d="M1578.331 583.159a2.18 2.18 0 0 1-.595-1.613v-15.877a2.142 2.142 0 0 1 .595-1.585 2.486 2.486 0 0 1 3.227 0 2.145 2.145 0 0 1 .594 1.585v15.877a2.284 2.284 0 0 1-3.821 1.613z" transform="translate(-1346.963 -499.838)" style="fill:#750010"/>
            <path data-name="Path 2459" d="M1597.807 583.2a8.678 8.678 0 0 1-3.141-1.486 1.989 1.989 0 0 1-.609-.665 2.087 2.087 0 0 1 .255-2.138 1.278 1.278 0 0 1 1-.537 1.914 1.914 0 0 1 .608.1 3.833 3.833 0 0 1 .722.354 9.514 9.514 0 0 0 2.462 1.118 10.007 10.007 0 0 0 2.745.354 5.4 5.4 0 0 0 2.859-.623 1.986 1.986 0 0 0 .991-1.783 1.6 1.6 0 0 0-.92-1.415 11.816 11.816 0 0 0-3.269-1.019 18.119 18.119 0 0 1-4.2-1.3 5.446 5.446 0 0 1-2.293-1.9 5 5 0 0 1-.721-2.746 5.352 5.352 0 0 1 1.033-3.212 6.851 6.851 0 0 1 2.858-2.236 10.089 10.089 0 0 1 4.118-.806 10.529 10.529 0 0 1 6.623 2.009 2.261 2.261 0 0 1 .608.693 1.858 1.858 0 0 1 .184.864 1.91 1.91 0 0 1-.438 1.245 1.277 1.277 0 0 1-1.005.538 1.9 1.9 0 0 1-.58-.085 4 4 0 0 1-.75-.368 11.9 11.9 0 0 0-2.137-1.1 7.117 7.117 0 0 0-2.476-.367 4.824 4.824 0 0 0-2.717.665 2.087 2.087 0 0 0-.991 1.825 1.641 1.641 0 0 0 .383 1.118 3.164 3.164 0 0 0 1.273.778 19.37 19.37 0 0 0 2.533.708 14.071 14.071 0 0 1 5.533 2.179 4.4 4.4 0 0 1 1.684 3.651 5.311 5.311 0 0 1-1.005 3.2 6.479 6.479 0 0 1-2.83 2.151 10.89 10.89 0 0 1-4.231.764 15.812 15.812 0 0 1-4.159-.528z" transform="translate(-1354.92 -499.728)" style="fill:#750010"/>
        </g>
        <g data-name="Group 1090">
            <path data-name="Path 2460" d="M29.64 50.279a2.412 2.412 0 0 1-.952 1.955 3.448 3.448 0 0 1-2.238.772 3.347 3.347 0 0 1-2.83-1.543l-6.843-10.395a6.682 6.682 0 0 0-2.188-2.316 5.982 5.982 0 0 0-3.01-.669H6.536V49.61a3.36 3.36 0 0 1-.875 2.445 3.153 3.153 0 0 1-2.368.9 3.236 3.236 0 0 1-2.393-.9A3.3 3.3 0 0 1 0 49.61v-30.1a3.076 3.076 0 0 1 .849-2.315 3.221 3.221 0 0 1 2.341-.823h12.865q6.175 0 9.391 2.753t3.216 7.95a10.052 10.052 0 0 1-2.392 6.921 11.326 11.326 0 0 1-6.767 3.473 6.5 6.5 0 0 1 2.625 1.286 11.356 11.356 0 0 1 2.213 2.573l4.683 7.153a3.255 3.255 0 0 1 .616 1.798zm-9.005-18.705a5.262 5.262 0 0 0 1.75-4.348 5.173 5.173 0 0 0-1.75-4.348q-1.75-1.363-5.506-1.364H6.484v11.475h8.645q3.755 0 5.506-1.415z"/>
            <path data-name="Path 2461" d="M36.612 51.823a3.077 3.077 0 0 1-.849-2.316v-30a3.078 3.078 0 0 1 .849-2.315 3.223 3.223 0 0 1 2.341-.823H57.53a3.582 3.582 0 0 1 2.316.669 2.315 2.315 0 0 1 .823 1.9 2.45 2.45 0 0 1-.823 1.981 3.489 3.489 0 0 1-2.316.695H42.246v9.983h14.255a3.583 3.583 0 0 1 2.315.669 2.373 2.373 0 0 1 .823 1.955 2.313 2.313 0 0 1-.823 1.9 3.58 3.58 0 0 1-2.315.669H42.246v10.6H57.53a3.489 3.489 0 0 1 2.316.695 2.452 2.452 0 0 1 .823 1.981 2.316 2.316 0 0 1-.823 1.9 3.585 3.585 0 0 1-2.316.668H38.953a3.221 3.221 0 0 1-2.341-.811z"/>
            <path data-name="Path 2462" d="M75.565 52.003a3.231 3.231 0 0 1-.9-2.393V21.822h-9.366q-3.087 0-3.087-2.727t3.087-2.727h25.37q3.088 0 3.087 2.727t-3.087 2.727h-9.366V49.61a3.1 3.1 0 0 1-3.293 3.293 3.3 3.3 0 0 1-2.445-.9z"/>
            <path data-name="Path 2463" d="M128.387 17.014a3.289 3.289 0 0 1 .875 2.393v30.207a3.322 3.322 0 0 1-.9 2.418 3.454 3.454 0 0 1-4.708 0 3.374 3.374 0 0 1-.875-2.418v-12.71h-18.576v12.71a3.322 3.322 0 0 1-.9 2.418 3.185 3.185 0 0 1-2.393.927 3.119 3.119 0 0 1-2.341-.927 3.32 3.32 0 0 1-.9-2.418V19.405a3.287 3.287 0 0 1 .872-2.391 3.146 3.146 0 0 1 2.367-.9 3.1 3.1 0 0 1 3.294 3.294v12.144h18.576V19.405a3.286 3.286 0 0 1 .875-2.393 3.561 3.561 0 0 1 4.734 0z"/>
            <path data-name="Path 2464" d="M137.983 52.029a3.32 3.32 0 0 1-.9-2.418V19.405a3.1 3.1 0 0 1 3.293-3.294 3.3 3.3 0 0 1 2.444.9 3.236 3.236 0 0 1 .9 2.393v30.21a3.322 3.322 0 0 1-.9 2.418 3.249 3.249 0 0 1-2.444.927 3.183 3.183 0 0 1-2.393-.93z"/>
            <path data-name="Path 2465" d="M181.311 17.014a3.345 3.345 0 0 1 .849 2.393v30.207a3.378 3.378 0 0 1-.874 2.418 2.974 2.974 0 0 1-2.264.927 2.942 2.942 0 0 1-2.522-1.184l-18.783-24.443v22.282a3.5 3.5 0 0 1-.823 2.418 3.23 3.23 0 0 1-4.528 0 3.5 3.5 0 0 1-.823-2.418V19.405a3.285 3.285 0 0 1 .875-2.393 3.081 3.081 0 0 1 2.315-.9 2.894 2.894 0 0 1 2.47 1.184l18.73 24.34v-22.23a3.345 3.345 0 0 1 .849-2.393 2.935 2.935 0 0 1 2.239-.9 3 3 0 0 1 2.29.901z"/>
            <path data-name="Path 2466" d="M219.159 49.867a2.863 2.863 0 0 1-.9 2.084 2.918 2.918 0 0 1-2.135.9 3.3 3.3 0 0 1-2.368-1.081L196.62 35.714v13.9a3.323 3.323 0 0 1-.9 2.418 3.251 3.251 0 0 1-2.444.927 3.182 3.182 0 0 1-2.393-.927 3.319 3.319 0 0 1-.9-2.418V19.405a3.1 3.1 0 0 1 3.293-3.294 3.3 3.3 0 0 1 2.444.9 3.237 3.237 0 0 1 .9 2.393v13.225l16.57-15.54a2.9 2.9 0 0 1 2.11-.926 3.079 3.079 0 0 1 2.985 2.984 2.935 2.935 0 0 1-1.029 2.161l-13.842 12.659 14.717 13.688a2.986 2.986 0 0 1 1.028 2.212z"/>
        </g>
        <g data-name="Group 1091">
            <path data-name="Path 2467" d="M1604.678 508.95a.994.994 0 0 1-.411-1.9 35.138 35.138 0 1 0-40.295-55.857.994.994 0 0 1-1.46-1.349 37.124 37.124 0 1 1 42.575 59.017.989.989 0 0 1-.409.089z" transform="translate(-1339.325 -437.911)" style="fill:#b83b4d"/>
            <path data-name="Path 2468" d="M1646.339 574.752a.986.986 0 0 1-.462-.115l-5.119-2.7a.994.994 0 0 1-.416-1.343l2.7-5.118a.994.994 0 1 1 1.759.926l-2.233 4.24 4.239 2.233a.994.994 0 0 1-.464 1.874z" transform="translate(-1377.779 -500.558)" style="fill:#b83b4d"/>
        </g>
    </g>
</svg>
