<svg xmlns="http://www.w3.org/2000/svg" width="55" height="58.983" viewBox="0 0 55 58.983">
    <defs>
        <clipPath id="dwmghiv6ba">
            <path data-name="Rectangle 374" style="fill:none" d="M0 0h55v58.983H0z"/>
        </clipPath>
    </defs>
    <g data-name="Paintbrush Icon">
        <g data-name="Group 1236" style="clip-path:url(#dwmghiv6ba)">
            <path data-name="Path 972" d="M36.177 30.4a1.343 1.343 0 0 1-1-.444L20.66 13.922a1.348 1.348 0 1 1 2-1.809l14.517 16.035a1.349 1.349 0 0 1-1 2.253" transform="translate(16.212 9.315)" style="fill:#1a1818"/>
            <path data-name="Path 973" d="M21.464 35.163a1.343 1.343 0 0 1-1-.444L10.2 23.386a1.348 1.348 0 0 1 2-1.809L22.463 32.91a1.349 1.349 0 0 1-1 2.253" transform="translate(7.867 16.871)" style="fill:#1a1818"/>
            <path data-name="Path 974" d="M19.072 40.7a1.34 1.34 0 0 1-1-.444l-6-6.628a5.411 5.411 0 0 1-1.331-4.337 6.691 6.691 0 0 1 2.2-4.166 1.964 1.964 0 0 0 .455-2.669L1.1 8.527a5.09 5.09 0 0 1 .748-7.056A5.569 5.569 0 0 1 5.471 0a4.6 4.6 0 0 1 3.513 1.478l12.41 13.706a1.661 1.661 0 0 0 1.176.468 2.362 2.362 0 0 0 1.536-.638l.214-.194c2.6-2.352 6.434-2.361 8.55-.02l6 6.628a1.345 1.345 0 0 1-.094 1.9l-18.8 17.02a1.348 1.348 0 0 1-.9.351M5.557 2.7h-.04a2.868 2.868 0 0 0-1.863.771 2.406 2.406 0 0 0-.53 3.276l12.292 13.929a4.648 4.648 0 0 1-.671 6.448 4 4 0 0 0-1.325 2.482 2.765 2.765 0 0 0 .649 2.215l5.1 5.627 16.8-15.211-5.094-5.628c-1.122-1.234-3.249-1.142-4.742.209l-.21.192a5.059 5.059 0 0 1-3.305 1.34 4.4 4.4 0 0 1-3.221-1.356L6.985 3.287A1.886 1.886 0 0 0 5.557 2.7" style="fill:#1a1818"/>
            <path data-name="Path 975" d="M27.775 44.051c-1.775 0-2.683-2.027-3.318-3.444-.719-1.608-1.464-3.269-2.924-3.719-1.363-.424-3.372.174-5.968 1.769a1.348 1.348 0 0 1-1.412-2.3c3.334-2.05 6.01-2.719 8.176-2.052 2.625.811 3.76 3.345 4.589 5.2a6.921 6.921 0 0 0 1.023 1.859 6.226 6.226 0 0 0-.824-2.217c-.834-1.681-1.78-3.587-1.075-5.405a3.38 3.38 0 0 1 1.994-1.854 3.706 3.706 0 0 1 2.949.245 8.92 8.92 0 0 1 1.491 1.03c.1.079.219.176.336.264a9.266 9.266 0 0 0 .358-2.96c.045-1.818.094-3.7 1.388-4.72a3.256 3.256 0 0 1 2.823-.489c1.868.4 2.568.155 2.814-.025.45-.325.554-1.32.662-2.375a9.5 9.5 0 0 1 .809-3.42 1.35 1.35 0 0 1 2.4 1.237 7.346 7.346 0 0 0-.523 2.464c-.158 1.521-.34 3.246-1.76 4.278-1.12.813-2.7.967-4.967.48a1.156 1.156 0 0 0-.588-.029c-.3.241-.34 1.881-.361 2.669a10.325 10.325 0 0 1-.653 4.127 2.761 2.761 0 0 1-1.751 1.627 3.18 3.18 0 0 1-2.676-1.027 6.706 6.706 0 0 0-1.034-.732 1.075 1.075 0 0 0-.829-.1.672.672 0 0 0-.4.354c-.246.638.45 2.036 1.007 3.158.753 1.521 1.469 2.958.957 4.316a2.716 2.716 0 0 1-1.6 1.548 2.918 2.918 0 0 1-1.115.241" transform="translate(10.784 14.932)" style="fill:#1a1818"/>
            <path data-name="Path 976" d="M5.222 5.358a1.592 1.592 0 1 1 .112-2.248 1.592 1.592 0 0 1-.111 2.248" transform="translate(2.045 2.064)" style="fill:#1a1818"/>
            <path data-name="Path 977" d="M10.539 23.138a1.349 1.349 0 0 1-.9-2.348l10.982-9.94a1.347 1.347 0 0 1 1.807 2l-10.98 9.942a1.343 1.343 0 0 1-.9.349" transform="translate(7.335 8.382)" style="fill:#1a1818"/>
            <path data-name="Path 978" d="M22.6 30.691a1.348 1.348 0 0 1-1-.441l-8.394-9.207a1.349 1.349 0 0 1 2-1.816l8.394 9.207a1.349 1.349 0 0 1-1 2.257" transform="translate(10.266 14.996)" style="fill:#1a1818"/>
            <path data-name="Path 979" d="M23.291 26.363a1.345 1.345 0 0 1-1-.441l-6.544-7.18a1.348 1.348 0 1 1 1.992-1.816l6.545 7.18a1.348 1.348 0 0 1-1 2.257" transform="translate(12.29 13.158)" style="fill:#1a1818"/>
            <path data-name="Path 980" d="M29.563 28.159a1.348 1.348 0 0 1-1-.441L18.3 16.458a1.349 1.349 0 0 1 2-1.816L30.561 25.9a1.349 1.349 0 0 1-1 2.257" transform="translate(14.326 11.337)" style="fill:#1a1818"/>
        </g>
    </g>
</svg>
